v 0.102877 0.086211 0.255010
v 0.117156 0.070173 0.251390
v 0.079703 0.090462 0.128274
v 0.080505 0.086640 0.122560
v 0.135098 0.046639 0.202699
v 0.104444 0.046127 0.121460
v 0.121683 0.064553 0.208562
v 0.133110 0.051047 0.191532
v 0.169522 0.021036 0.247562
v 0.165508 0.019161 0.210131
v 0.164289 0.019754 0.230466
v 0.155515 0.027077 0.189011
v 0.160141 0.011932 0.235774
v 0.160414 0.009006 0.242493
v 0.103703 0.028374 0.133707
v 0.130992 0.048423 0.191522
v 0.133822 0.044031 0.184513
v 0.139834 0.043532 0.180347
v 0.062801 0.013954 0.381041
v 0.077867 0.025371 0.371763
v 0.019181 0.021878 0.430615
v 0.041109 0.104021 0.300651
v 0.038503 0.124920 0.278447
v 0.072626 0.115577 0.278493
v 0.060149 0.099128 0.211504
v 0.064562 0.096321 0.183519
v 0.090119 0.094802 0.181898
v 0.056621 0.208094 -0.018012
v 0.070578 0.130094 0.047422
v 0.063894 0.167982 0.029235
v 0.056411 0.181404 0.052195
v 0.050570 0.189189 0.041934
v 0.113826 0.078037 -0.054551
v 0.116687 0.079398 0.045989
v 0.103636 0.066556 -0.026932
v 0.124389 0.047209 0.074433
v 0.116861 0.055549 0.101513
v 0.122902 0.056869 -0.097315
v 0.135467 0.017622 -0.043491
v 0.100942 0.076213 -0.046459
v 0.082546 0.114752 0.079827
v 0.086130 0.159898 0.035262
v 0.069948 0.263635 -0.146247
v 0.068182 0.263407 -0.208892
v 0.070870 0.253508 -0.193862
v 0.068498 0.217882 -0.167451
v 0.080267 0.232283 -0.165329
v 0.088193 0.223064 -0.158808
v 0.076895 0.209965 -0.159081
v 0.063150 0.240876 -0.102380
v 0.071889 0.247712 -0.142913
v 0.059955 0.243192 -0.152198
v 0.056857 0.289055 -0.195430
v 0.041834 0.222511 -0.138282
v 0.035572 0.158895 -0.177887
v 0.049197 0.154704 -0.327585
v 0.034680 0.142096 -0.281260
v 0.014580 0.162656 -0.490587
v 0.019927 0.157514 -0.453547
v 0.040548 0.180903 -0.499457
v 0.170310 0.163778 -0.498332
v 0.116000 0.182773 -0.448777
v 0.156606 0.139192 -0.452157
v 0.112741 0.141145 -0.499526
v 0.080600 0.081820 -0.489936
v 0.068983 0.080092 -0.427227
v 0.018896 0.047865 -0.344787
v 0.089975 0.103497 -0.141308
v 0.092709 0.108140 -0.165389
v 0.082508 0.134881 -0.139197
v 0.104555 0.085104 -0.138904
v 0.099761 0.112811 -0.125689
v 0.102289 0.016126 -0.180605
v 0.115920 0.064912 -0.138209
v 0.135493 0.000244 -0.222588
v 0.133189 0.007974 -0.209471
v 0.153087 0.009003 -0.218797
v 0.133277 -0.014869 -0.219421
v 0.108781 -0.106062 -0.198624
v 0.117214 -0.063063 -0.141492
v 0.113538 -0.060673 -0.156549
v 0.100498 -0.073614 -0.092541
v 0.107759 -0.091622 -0.105931
v 0.105890 -0.079604 -0.106737
v 0.101454 -0.096404 -0.140700
v 0.105713 -0.095822 -0.185511
v 0.099729 -0.017383 -0.184249
v 0.021632 -0.067279 -0.441265
v 0.048219 -0.072289 -0.498483
v 0.058720 -0.081965 -0.485766
v 0.051485 -0.077931 -0.441246
v 0.075934 -0.099282 -0.417303
v 0.159815 -0.150696 -0.499639
v 0.116130 -0.159624 -0.499577
v 0.146826 -0.129161 -0.451244
v 0.121727 -0.176692 -0.445640
v 0.043219 -0.169886 -0.448987
v 0.015268 -0.162130 -0.499650
v 0.026908 -0.159389 -0.490782
v 0.043152 -0.159214 -0.328825
v 0.056044 -0.133542 -0.158291
v 0.038493 -0.301214 -0.120765
v 0.035179 -0.222063 -0.119278
v 0.060168 -0.152125 -0.150579
v 0.064700 -0.262424 -0.103992
v 0.061410 -0.241826 -0.152175
v 0.066521 -0.240607 -0.111154
v 0.069280 -0.221953 -0.168305
v 0.084138 -0.229790 -0.159953
v 0.081925 -0.211338 -0.157913
v 0.084570 -0.219062 -0.168921
v 0.063029 -0.254063 -0.206326
v 0.074907 -0.264320 -0.201180
v 0.069022 -0.258797 -0.147436
v 0.065543 -0.273233 -0.129564
v 0.080788 -0.176054 0.052547
v 0.102687 -0.096602 0.104545
v 0.084178 -0.100344 0.084114
v 0.093322 -0.093597 0.180812
v 0.075994 -0.110092 0.230378
v 0.049927 -0.099253 0.199957
v 0.079180 -0.091348 0.195201
v 0.084320 -0.101951 0.177265
v 0.111890 -0.085735 0.256764
v 0.123077 -0.067520 0.246899
v 0.093492 -0.073285 0.171866
v 0.083066 -0.078887 0.127229
v 0.101500 -0.073781 0.122396
v 0.115191 -0.073460 0.192906
v 0.146218 -0.043527 0.199096
v 0.136302 -0.052406 0.206430
v 0.092633 -0.049951 0.168374
v 0.148360 -0.036472 0.236195
v 0.115754 -0.003348 0.155617
v 0.157128 -0.013043 0.195841
v 0.164470 0.000396 0.136267
v 0.136491 -0.023320 -0.033742
v 0.144879 -0.019103 0.000735
v 0.138316 -0.040327 0.025245
v 0.114393 -0.065110 -0.018368
v 0.131475 -0.033701 -0.054599
v 0.123677 -0.020992 -0.050865
v 0.096348 -0.042532 0.136808
v 0.024751 -0.112110 0.007450
v 0.032914 -0.110667 0.003739
v 0.071458 -0.101290 0.227702
v 0.036912 -0.129442 0.263329
v 0.063949 -0.163145 0.039180
v 0.070140 -0.133091 0.044258
v 0.051299 -0.185266 0.049331
v 0.034049 -0.199084 0.059414
v 0.012858 -0.245460 0.011102
v 0.022845 -0.232805 0.002789
v 0.056956 -0.201323 -0.027602
v -0.036866 -0.147077 0.041002
v -0.022360 -0.125537 0.038836
v 0.002913 -0.111753 0.015674
v 0.016405 -0.102778 0.276763
v -0.033048 -0.104368 0.096182
v -0.033307 -0.095923 0.101970
v -0.019972 -0.085210 0.248869
v -0.025768 -0.002411 0.402159
v -0.028538 -0.021121 0.411003
v -0.010348 -0.060364 0.158093
v -0.022604 -0.067024 0.150730
v -0.022808 -0.054046 0.147787
v -0.052452 -0.060904 0.046153
v -0.057012 -0.015166 0.032222
v -0.087533 -0.005568 0.009441
v -0.053297 -0.049438 0.269291
v -0.045771 -0.081678 0.085026
v -0.062563 -0.060667 0.089050
v -0.067818 -0.065912 0.095640
v -0.047854 -0.088337 0.134078
v -0.042639 -0.064212 0.149457
v -0.061015 -0.100444 0.090786
v -0.061708 -0.115191 0.090862
v -0.048835 -0.095553 0.106509
v -0.068339 -0.125517 0.062976
v -0.063350 -0.120533 0.078427
v -0.047596 -0.204555 -0.055918
v -0.026107 -0.186190 -0.045932
v -0.001213 -0.295567 -0.124144
v 0.012814 -0.114916 -0.160179
v 0.022832 -0.122315 -0.163537
v 0.005647 -0.113871 -0.159117
v 0.009309 -0.127931 -0.169528
v 0.016260 -0.159526 -0.180893
v -0.015097 -0.119224 -0.152941
v -0.004305 -0.261564 -0.207174
v -0.002703 -0.151624 -0.302444
v 0.004761 -0.251749 -0.201336
v -0.010839 -0.125226 -0.389913
v -0.010253 -0.113568 -0.499433
v -0.013137 -0.142457 -0.402405
v -0.077468 -0.214539 -0.266118
v -0.099254 -0.229716 -0.264459
v -0.104461 -0.195212 -0.268164
v -0.124078 -0.175344 -0.267468
v -0.101056 -0.171966 -0.261922
v -0.111818 -0.134429 -0.270011
v 0.002673 -0.063389 -0.496249
v -0.002094 -0.098604 -0.154209
v 0.000013 -0.064562 -0.081199
v -0.018886 -0.055917 -0.137326
v 0.003675 0.062245 -0.077437
v 0.006055 0.113719 -0.180780
v -0.019913 0.054860 -0.128382
v 0.005626 0.097405 -0.499181
v -0.108267 0.116381 -0.278164
v -0.117853 0.137006 -0.269826
v -0.161979 0.169859 -0.250905
v -0.165425 0.181938 -0.268039
v -0.130980 0.179045 -0.257502
v -0.100384 0.140962 -0.210744
v -0.173529 0.190015 -0.262045
v -0.104932 0.203532 -0.288213
v -0.105215 0.223265 -0.284247
v 0.006013 0.158204 -0.497487
v -0.021763 0.122172 -0.499084
v 0.007487 0.252070 -0.203952
v -0.006204 0.264411 -0.204808
v -0.019733 0.278866 -0.154620
v -0.004853 0.287068 -0.124229
v -0.013760 0.283098 -0.134052
v -0.028127 0.266195 -0.113201
v -0.027197 0.186961 -0.035530
v -0.063846 0.149848 0.065372
v -0.051179 0.111164 0.093095
v -0.067181 0.099268 0.103297
v -0.062192 0.108823 0.104525
v -0.052367 0.091156 0.074185
v -0.070999 0.086527 0.093648
v -0.071425 0.068662 0.089713
v -0.042327 0.047542 0.143491
v -0.048297 0.067307 0.072354
v -0.070883 0.054307 0.098342
v -0.050763 0.086320 0.130670
v -0.052378 0.082607 0.068743
v -0.047750 0.075445 0.089365
v -0.047879 0.064221 0.073433
v -0.037098 0.148483 0.041624
v -0.017526 0.119714 0.037447
v -0.045218 0.118593 0.095508
v -0.003248 0.063222 0.160999
v -0.018601 0.058661 0.148624
v -0.012437 0.109879 0.035273
v 0.002614 0.220382 0.017240
v 0.009923 0.101453 0.233749
v -0.103351 0.070599 0.310981
v -0.108756 0.093941 0.313918
v -0.127009 0.090069 0.386169
v -0.125775 0.103042 0.331355
v -0.136810 0.096798 0.345448
v -0.127595 0.112578 0.322085
v -0.179546 0.114698 0.325005
v -0.120100 0.114932 0.342511
v -0.175518 0.144475 0.375024
v -0.173536 0.149741 0.373488
v 0.155035 0.046731 0.254584
v 0.143668 0.036930 0.248030
v 0.073683 0.122908 0.246776
v 0.115877 0.086168 0.274221
v 0.123831 0.065533 0.242364
v 0.129252 0.072338 0.234356
v 0.100281 0.094216 0.215939
v 0.062547 0.105878 0.221535
v 0.063794 0.094586 0.141439
v 0.113688 0.069850 0.089222
v 0.101301 0.097466 0.097567
v 0.087703 0.110250 0.107515
v 0.071126 0.117098 0.128624
v 0.067113 0.079631 0.151627
v 0.103662 0.091218 0.073903
v 0.087139 0.100120 0.073619
v 0.091208 0.114140 0.085252
v 0.090288 0.125264 0.097362
v 0.151019 0.040973 0.201469
v 0.135997 0.052244 0.209366
v 0.131057 0.024945 0.098217
v 0.119663 -0.002579 0.116196
v 0.127803 -0.002143 0.112030
v 0.121590 0.068925 0.185038
v 0.091882 0.093702 0.196114
v 0.155605 0.041655 0.276787
v 0.168900 0.014508 0.283661
v 0.184130 0.001598 0.251455
v 0.182039 0.000041 0.228835
v 0.176683 0.001137 0.287543
v 0.165389 0.017153 0.190227
v 0.146983 0.049039 0.221204
v 0.179108 -0.002774 0.212514
v 0.174373 -0.001132 0.189844
v 0.141073 0.040319 0.236442
v 0.153233 0.019979 0.233785
v 0.154542 0.019666 0.168599
v 0.166464 0.008354 0.165592
v 0.089739 0.032393 0.133979
v 0.098883 -0.000385 0.130259
v 0.108215 -0.001753 0.131796
v 0.144827 0.039093 0.160726
v 0.121662 0.069370 0.169996
v 0.061804 0.001149 0.387839
v 0.118587 0.002143 0.364368
v 0.117671 0.014599 0.356334
v 0.113946 0.029147 0.350946
v 0.061741 0.032752 0.373303
v 0.043494 0.023928 0.388047
v 0.094519 0.060726 0.347847
v 0.015512 0.027671 0.421667
v 0.002834 0.021172 0.466620
v 0.011836 0.005608 0.477913
v 0.032783 0.000872 0.435456
v -0.003570 0.052110 0.443416
v -0.013720 0.046603 0.462517
v -0.002201 0.052403 0.432445
v 0.070105 0.102354 0.297079
v 0.011636 0.100746 0.281748
v 0.019726 0.083107 0.333910
v 0.062983 0.080936 0.344382
v 0.029638 0.129405 0.247670
v 0.007064 0.094765 0.207983
v 0.111095 0.078558 0.295942
v 0.006675 0.091652 0.187443
v 0.064194 0.083442 0.181197
v 0.011117 0.082085 0.185445
v 0.112372 0.063562 0.162491
v 0.107256 0.056016 0.165087
v 0.064429 0.261620 -0.095943
v 0.058809 0.239403 -0.046936
v 0.065745 0.229819 -0.070848
v 0.049575 0.190970 0.000726
v 0.045969 0.174882 -0.010918
v 0.051461 0.181728 -0.034907
v 0.052189 0.211104 -0.084387
v 0.062753 0.216673 -0.077076
v 0.033201 0.238517 0.002638
v 0.026292 0.216864 0.003227
v 0.034758 0.262774 -0.023442
v 0.072492 0.161423 0.032953
v 0.077823 0.132501 0.039211
v 0.059989 0.130673 0.041051
v 0.058825 0.154225 0.017362
v 0.075210 0.113943 0.060018
v 0.068283 0.112780 0.047257
v 0.076960 0.117607 0.073885
v 0.072723 0.123019 0.073447
v 0.059565 0.196769 0.044315
v 0.069494 0.181652 0.038693
v 0.028411 0.202041 0.061916
v 0.031738 0.219147 0.055267
v 0.131190 0.050645 -0.120971
v 0.126470 0.061236 -0.140205
v 0.116791 0.056578 -0.052532
v 0.124744 0.059399 -0.071740
v 0.105485 0.087546 -0.088708
v 0.065103 0.094213 -0.041151
v 0.062632 0.083028 -0.042704
v 0.103933 0.057074 -0.048587
v 0.106560 0.094928 0.055610
v 0.114921 0.072240 0.066038
v 0.135123 0.046104 0.041622
v 0.126192 0.061906 0.012473
v 0.099627 0.098215 0.029923
v 0.056856 0.094262 -0.033643
v 0.044376 0.106439 -0.005585
v 0.081474 0.104404 0.005014
v 0.131343 0.025629 0.077867
v 0.141138 0.008095 0.073276
v 0.143769 0.027741 -0.088283
v 0.138819 0.031108 -0.120676
v 0.150466 0.028038 -0.061899
v 0.133564 -0.025264 -0.051926
v 0.147929 -0.023979 -0.051806
v 0.133703 0.020251 -0.041442
v 0.138206 0.017124 -0.041430
v 0.137589 0.020018 -0.046530
v 0.067079 0.105931 -0.043667
v 0.076682 0.115078 0.081195
v 0.089453 0.120208 0.064388
v 0.084798 0.168599 0.039581
v 0.088307 0.155625 0.047502
v 0.088722 0.142758 0.040048
v 0.076319 0.169174 0.034761
v 0.064808 0.279867 -0.133697
v 0.081049 0.231410 -0.137571
v 0.073997 0.262131 -0.174390
v 0.069401 0.280181 -0.172426
v 0.059609 0.254849 -0.162142
v 0.061140 0.251646 -0.200232
v 0.051930 0.262819 -0.203926
v 0.056225 0.274026 -0.208384
v 0.072109 0.271538 -0.199002
v 0.061863 0.255991 -0.181234
v 0.056919 0.221742 -0.152516
v 0.074456 0.226547 -0.170781
v 0.085756 0.214269 -0.161539
v 0.067718 0.211491 -0.142927
v 0.079120 0.218172 -0.137321
v 0.063107 0.227431 -0.112764
v 0.045915 0.250448 -0.156114
v 0.049930 0.262351 -0.169154
v 0.054715 0.296515 -0.174087
v 0.038407 0.281001 -0.209641
v 0.034442 0.293854 -0.198453
v 0.030990 0.301775 -0.174907
v 0.055624 0.218465 -0.119680
v 0.035812 0.205183 -0.097628
v 0.012665 0.212221 -0.110799
v 0.024240 0.237654 -0.148165
v 0.026835 0.261995 -0.161996
v 0.039993 0.144991 -0.171682
v 0.017883 0.135252 -0.169936
v 0.005594 0.147969 -0.169117
v 0.006262 0.140213 -0.153096
v 0.040165 0.153715 -0.147788
v 0.062462 0.145877 -0.311035
v 0.078089 0.133844 -0.318366
v 0.058378 0.143042 -0.349254
v 0.026219 0.151177 -0.352135
v 0.018315 0.164977 -0.311047
v 0.043585 0.152371 -0.294692
v 0.037050 0.148558 -0.262593
v 0.064231 0.154237 -0.266618
v 0.012292 0.137841 -0.282743
v 0.013341 0.141150 -0.262890
v -0.016983 0.147097 -0.497437
v -0.019609 0.152143 -0.487368
v 0.013057 0.161381 -0.472522
v 0.042528 0.178505 -0.478003
v 0.047020 0.166535 -0.499826
v 0.025878 0.153938 -0.491163
v 0.012610 0.146455 -0.498575
v -0.014224 0.150062 -0.467618
v 0.000123 0.147765 -0.435993
v 0.026375 0.163184 -0.426194
v 0.046692 0.171286 -0.450920
v 0.069469 0.196904 -0.482725
v 0.068075 0.193334 -0.499029
v 0.072026 0.180167 -0.499586
v 0.163636 0.145858 -0.499349
v 0.146953 0.153493 -0.499748
v 0.155401 0.173372 -0.499410
v 0.161611 0.183712 -0.493655
v 0.173849 0.166254 -0.491731
v 0.172126 0.140479 -0.494204
v 0.094035 0.177506 -0.439805
v 0.113384 0.156070 -0.432177
v 0.140970 0.171658 -0.445803
v 0.152599 0.179463 -0.467043
v 0.118149 0.195566 -0.467803
v 0.075616 0.192667 -0.462135
v 0.163725 0.141292 -0.468880
v 0.166039 0.163305 -0.466980
v 0.155634 0.155547 -0.447930
v 0.134418 0.120841 -0.446397
v 0.139328 0.108524 -0.465107
v 0.126024 0.138262 -0.434356
v 0.118447 0.165768 -0.499672
v 0.126891 0.125285 -0.499404
v 0.084190 0.129911 -0.499465
v 0.076316 0.161324 -0.499695
v 0.089087 0.107842 -0.499164
v 0.074036 0.092273 -0.497740
v 0.089014 0.093728 -0.498704
v 0.067353 0.088916 -0.490081
v 0.082931 0.084444 -0.470409
v 0.037557 0.066152 -0.470902
v 0.039787 0.064911 -0.487623
v 0.038548 0.072924 -0.497403
v 0.037706 0.061801 -0.414865
v 0.038274 0.073831 -0.447324
v -0.014254 0.065623 -0.338002
v -0.003117 0.083122 -0.362863
v 0.018930 0.064755 -0.370173
v 0.041144 0.068968 -0.373436
v 0.048323 0.057636 -0.348347
v 0.054934 0.046540 -0.311695
v 0.022005 0.050449 -0.296818
v -0.002397 0.066159 -0.292163
v 0.094755 0.101553 -0.143074
v 0.097202 0.098901 -0.142450
v 0.070675 0.124302 -0.168199
v 0.070011 0.120078 -0.151437
v 0.100253 0.096542 -0.142779
v 0.102696 0.098596 -0.172670
v 0.053683 0.139526 -0.109824
v 0.104864 0.113079 -0.150752
v 0.088405 0.135908 -0.155235
v 0.114199 0.046590 -0.162613
v 0.113588 0.057861 -0.166737
v 0.107722 0.079443 -0.156175
v 0.098701 0.021767 -0.190114
v 0.111488 0.039577 -0.179307
v 0.113063 0.034916 -0.166634
v 0.065591 0.006468 -0.190871
v 0.065860 0.009532 -0.198049
v 0.102968 0.000745 -0.181306
v 0.067050 -0.001766 -0.189437
v 0.121649 0.018865 -0.165413
v 0.121080 0.001878 -0.169712
v 0.121777 0.034044 -0.162792
v 0.132254 0.057967 -0.165051
v 0.123298 0.061419 -0.168474
v 0.118975 0.047233 -0.156661
v 0.130070 0.025174 -0.209749
v 0.136962 0.003456 -0.237319
v 0.133798 -0.021364 -0.232679
v 0.131041 -0.019671 -0.205282
v 0.131261 0.005224 -0.184732
v 0.127847 0.024155 -0.181417
v 0.152627 -0.010140 -0.220031
v 0.157481 -0.003236 -0.244993
v 0.153319 0.017543 -0.234045
v 0.144327 0.038168 -0.197823
v 0.150345 0.017507 -0.192315
v 0.154089 -0.006714 -0.187309
v 0.126585 -0.039077 -0.208606
v 0.113575 -0.084705 -0.214587
v 0.109904 -0.074095 -0.190349
v 0.111309 -0.069696 -0.171071
v 0.096184 -0.105983 -0.171481
v 0.097584 -0.121544 -0.196550
v 0.095228 -0.100754 -0.150689
v 0.089074 -0.109296 -0.090335
v 0.118734 -0.057400 -0.179149
v 0.125236 -0.063050 -0.178613
v 0.138219 -0.051960 -0.181873
v 0.135774 -0.049321 -0.144211
v 0.130295 -0.046275 -0.098288
v 0.112055 -0.041992 -0.175722
v 0.117682 -0.036866 -0.160508
v 0.123517 -0.040828 -0.179486
v 0.129707 -0.049001 -0.064159
v 0.087017 -0.082462 -0.044037
v 0.091391 -0.126804 -0.138551
v 0.073917 -0.140366 -0.132782
v 0.070655 -0.150069 -0.155599
v 0.095972 -0.029469 -0.205662
v 0.063245 -0.015836 -0.213515
v 0.064822 -0.007774 -0.195232
v 0.118750 -0.016225 -0.167783
v 0.108612 -0.050513 -0.197086
v 0.041136 -0.071339 -0.470109
v 0.009112 -0.065030 -0.465131
v -0.018790 -0.080282 -0.459772
v -0.009688 -0.086915 -0.431802
v -0.003124 -0.086211 -0.393218
v 0.022430 -0.068977 -0.396882
v 0.049538 -0.066589 -0.397365
v 0.032012 -0.063628 -0.495192
v 0.037211 -0.063530 -0.482992
v 0.040605 -0.085327 -0.499171
v 0.022100 -0.074581 -0.498340
v 0.057954 -0.093554 -0.490095
v 0.063596 -0.081586 -0.474930
v 0.107642 -0.089693 -0.496656
v 0.100045 -0.104010 -0.499008
v 0.111219 -0.086491 -0.481756
v 0.072161 -0.082858 -0.456490
v 0.089592 -0.093988 -0.430911
v 0.073259 -0.083423 -0.397298
v 0.084763 -0.100456 -0.393071
v 0.083798 -0.107298 -0.407825
v 0.091439 -0.111351 -0.418327
v 0.147413 -0.132285 -0.499664
v 0.159232 -0.122585 -0.498021
v 0.171768 -0.153336 -0.498970
v 0.153946 -0.163465 -0.499666
v 0.135495 -0.144510 -0.499659
v 0.165240 -0.174816 -0.497844
v 0.127243 -0.180810 -0.499610
v 0.079831 -0.155658 -0.499618
v 0.091391 -0.124319 -0.499409
v 0.073294 -0.181624 -0.499584
v 0.152091 -0.147513 -0.446355
v 0.167002 -0.154563 -0.469001
v 0.157500 -0.128017 -0.471237
v 0.116135 -0.104968 -0.442121
v 0.115429 -0.124690 -0.430922
v 0.111263 -0.091087 -0.466391
v 0.128447 -0.191999 -0.463952
v 0.158933 -0.174774 -0.466301
v 0.142508 -0.164592 -0.442247
v 0.110208 -0.143256 -0.426128
v 0.100391 -0.167061 -0.432803
v 0.086005 -0.187480 -0.448746
v 0.061460 -0.165935 -0.425624
v 0.053772 -0.158248 -0.409202
v 0.032141 -0.163478 -0.422899
v 0.030076 -0.170552 -0.477719
v 0.070329 -0.199016 -0.489095
v 0.077144 -0.195101 -0.468577
v 0.004594 -0.154888 -0.434289
v 0.007306 -0.154761 -0.457762
v 0.007304 -0.162628 -0.478165
v -0.021195 -0.146473 -0.495708
v -0.011572 -0.138785 -0.499157
v 0.006371 -0.127287 -0.499649
v 0.035767 -0.140335 -0.490935
v 0.050285 -0.150786 -0.304394
v 0.030280 -0.152821 -0.291591
v 0.015996 -0.165242 -0.324826
v 0.028060 -0.149210 -0.362477
v 0.052192 -0.147848 -0.352207
v 0.067314 -0.142273 -0.315221
v 0.054781 -0.126386 -0.158949
v 0.052550 -0.150163 -0.177005
v 0.022702 -0.137127 -0.169786
v 0.018064 -0.148927 -0.185655
v 0.028626 -0.292285 -0.083904
v 0.009336 -0.292871 -0.083501
v 0.020043 -0.306288 -0.126985
v 0.055880 -0.286114 -0.128907
v 0.049024 -0.284266 -0.088218
v 0.034264 -0.304379 -0.169678
v 0.054269 -0.296749 -0.162835
v 0.007870 -0.225728 -0.123195
v 0.000683 -0.194293 -0.092201
v 0.033019 -0.193461 -0.090267
v 0.059565 -0.215895 -0.147577
v 0.056944 -0.229926 -0.153068
v 0.030809 -0.240021 -0.149503
v 0.010187 -0.241551 -0.153800
v 0.031605 -0.155384 -0.157265
v 0.041113 -0.162035 -0.172328
v 0.028457 -0.146675 -0.131162
v 0.066630 -0.283171 -0.158108
v 0.078404 -0.228975 -0.168116
v 0.078657 -0.236142 -0.142939
v 0.032252 -0.261957 -0.161212
v 0.059508 -0.227986 -0.109564
v 0.060192 -0.210126 -0.071594
v 0.067213 -0.222932 -0.063079
v 0.081307 -0.223279 -0.137555
v 0.057327 -0.242904 -0.046131
v 0.070298 -0.258438 -0.178703
v 0.056021 -0.259864 -0.179615
v 0.030309 -0.269781 -0.184561
v 0.075523 -0.212255 -0.166648
v 0.088087 -0.220323 -0.159884
v 0.071810 -0.212672 -0.139186
v 0.048766 -0.265875 -0.208680
v 0.053058 -0.262354 -0.196772
v 0.067915 -0.253072 -0.197163
v 0.066451 -0.270146 -0.205842
v 0.050376 -0.281112 -0.208646
v 0.076341 -0.272548 -0.185505
v 0.063163 -0.282057 -0.190025
v 0.067605 -0.217255 -0.033434
v 0.080739 -0.167971 0.037196
v 0.088651 -0.122197 0.058765
v 0.085791 -0.147243 0.073262
v 0.070598 -0.179807 0.093769
v 0.065028 -0.197570 0.069156
v 0.082777 -0.107579 0.117304
v 0.091908 -0.111178 0.091920
v 0.096456 -0.093001 0.087453
v 0.085825 -0.124951 0.103869
v 0.077333 -0.111891 0.064475
v 0.093467 -0.099078 0.062576
v 0.127639 -0.063146 0.170327
v 0.135844 -0.048609 0.182145
v 0.026999 -0.098074 0.186014
v 0.109468 -0.091714 0.235731
v 0.081645 -0.117477 0.250829
v 0.091708 -0.097266 0.206869
v 0.114375 -0.080658 0.217673
v 0.022245 -0.101986 0.218711
v 0.025296 -0.088252 0.186425
v 0.113641 -0.087262 0.275885
v 0.064846 -0.124916 0.273648
v 0.134781 -0.069646 0.231991
v 0.157930 -0.042836 0.253370
v 0.099052 -0.061512 0.170648
v 0.033363 -0.078217 0.190113
v 0.036052 -0.062223 0.188172
v 0.079760 -0.071071 0.137298
v 0.050591 -0.098236 0.152719
v 0.056290 -0.107913 0.157961
v 0.123616 -0.029933 0.111733
v 0.114519 -0.028133 0.117272
v 0.057552 -0.122761 0.144481
v 0.125600 -0.038706 0.098169
v 0.170260 -0.018963 0.215829
v 0.155823 -0.042192 0.220312
v 0.153007 -0.022776 0.171159
v 0.038887 -0.055876 0.184348
v 0.084491 -0.042378 0.165818
v 0.171928 -0.016673 0.232666
v 0.175651 -0.014665 0.251317
v 0.133617 -0.020364 0.152501
v 0.104506 -0.001889 0.156372
v 0.093478 0.038965 0.162534
v 0.100754 0.046527 0.165973
v 0.135749 0.016799 0.151283
v 0.146464 -0.000377 0.144175
v 0.166793 -0.007371 0.165765
v 0.164456 0.002632 0.150271
v 0.161936 -0.010508 0.151173
v 0.155789 -0.009752 0.141485
v 0.154062 0.012229 0.142585
v 0.157702 0.017902 0.152991
v 0.157792 0.002814 -0.053036
v 0.147036 -0.000553 -0.036102
v 0.112114 -0.047428 -0.050926
v 0.150917 -0.000411 -0.005616
v 0.155500 -0.014350 0.029415
v 0.160750 -0.004190 0.025441
v 0.136371 -0.016546 0.065832
v 0.121805 -0.048324 0.083746
v 0.120014 -0.071168 0.053989
v 0.095790 -0.099167 0.018890
v 0.062704 -0.097085 -0.026006
v 0.074373 -0.080439 -0.043834
v 0.148428 -0.031500 -0.075684
v 0.115412 -0.009327 0.126014
v 0.085253 -0.045586 0.141860
v 0.030393 -0.116533 0.022038
v 0.003259 -0.113743 0.023711
v 0.001523 -0.100757 0.006790
v 0.031334 -0.091704 -0.026999
v 0.060414 -0.104605 0.300010
v 0.054045 -0.190339 0.047807
v 0.049844 -0.197856 0.031825
v 0.062139 -0.178247 0.023016
v 0.057706 -0.140101 0.029973
v 0.057547 -0.122446 0.042777
v 0.057868 -0.153820 0.013686
v 0.032947 -0.200075 0.052351
v 0.029968 -0.212901 0.038511
v -0.005909 -0.201985 0.063348
v 0.000011 -0.200505 0.055168
v 0.004790 -0.227484 0.002173
v -0.001046 -0.240387 0.007495
v -0.003077 -0.254537 -0.001015
v 0.014255 -0.258472 0.003065
v 0.032007 -0.249967 -0.001857
v 0.053729 -0.229774 -0.016215
v 0.041863 -0.217088 -0.006296
v 0.041064 -0.206649 0.009186
v 0.024651 -0.220322 0.016765
v 0.001672 -0.221528 0.017835
v 0.050274 -0.189212 -0.000658
v 0.052456 -0.183066 -0.042646
v 0.045676 -0.173443 -0.012549
v -0.035536 -0.163300 0.025310
v -0.027278 -0.188531 0.034714
v -0.026241 -0.176826 0.050202
v -0.045142 -0.149481 0.042137
v -0.050975 -0.123175 0.068531
v -0.039753 -0.124182 0.072696
v -0.035283 -0.185100 0.054438
v -0.023412 -0.142938 0.015318
v 0.001755 -0.116850 0.019428
v -0.001274 -0.127716 0.002630
v -0.030330 -0.115808 0.073080
v -0.032826 -0.106148 0.072475
v -0.021514 -0.111979 0.046550
v -0.025707 -0.104812 0.046341
v -0.033635 -0.094994 0.044017
v -0.038642 -0.089215 0.097246
v -0.034761 -0.094618 0.090130
v -0.040692 -0.111500 0.095837
v -0.041569 -0.099679 0.102395
v -0.045204 -0.092657 0.101240
v -0.019947 0.009567 0.400188
v -0.008166 0.005604 0.400264
v -0.009250 -0.004838 0.401023
v -0.016032 -0.020464 0.412905
v -0.042295 -0.008797 0.404389
v -0.003800 -0.018379 0.406509
v -0.033579 -0.035293 0.418639
v -0.058099 -0.018205 0.409299
v -0.014749 -0.038690 0.420671
v -0.001246 -0.048952 0.156731
v -0.026701 -0.025849 0.163614
v -0.037213 -0.030514 0.154550
v -0.000326 -0.074476 0.165105
v 0.003992 -0.089368 0.172908
v -0.041115 -0.032727 0.143084
v -0.047324 -0.033040 0.061795
v -0.057224 -0.040940 0.009094
v -0.053718 -0.068976 0.060734
v -0.056750 -0.054499 0.001372
v -0.044696 -0.084588 0.070561
v -0.071996 0.015393 0.051787
v -0.079878 0.041655 0.043284
v -0.086670 0.028700 -0.005939
v -0.082210 -0.030756 0.001015
v -0.071563 -0.046846 0.060356
v -0.069287 -0.038874 0.066190
v -0.087614 0.018548 -0.058205
v -0.087410 -0.006490 -0.054709
v -0.082671 -0.029368 -0.056315
v -0.039695 -0.069509 0.264506
v -0.033472 -0.067529 0.303433
v -0.050820 -0.025993 0.310286
v -0.065771 -0.020100 0.261531
v -0.043254 -0.072810 0.234141
v -0.062598 -0.076054 0.046225
v -0.056002 -0.070540 0.059365
v -0.045362 -0.080500 0.075690
v -0.057438 -0.080661 0.057863
v -0.056402 -0.088134 0.056971
v -0.048590 -0.088662 0.087674
v -0.057397 -0.094156 0.057511
v -0.067894 -0.031772 0.080229
v -0.069334 -0.063596 0.079238
v -0.073078 -0.070446 0.082278
v -0.072387 -0.079964 0.084367
v -0.075231 -0.082214 0.101618
v -0.053151 -0.100740 0.133279
v -0.034249 -0.110372 0.155117
v -0.037558 -0.095176 0.153649
v -0.074407 -0.084382 0.120549
v -0.068935 -0.096341 0.118871
v -0.067816 -0.031878 0.127124
v -0.072852 -0.033315 0.111687
v -0.062838 -0.065492 0.133044
v -0.074168 -0.066185 0.115639
v -0.054647 -0.097901 0.090799
v -0.049053 -0.101595 0.101897
v -0.065225 -0.099100 0.088229
v -0.049199 -0.115746 0.090321
v -0.067608 -0.098080 0.102678
v -0.067950 -0.093727 0.086546
v -0.060723 -0.130076 0.099769
v -0.062261 -0.104804 0.113505
v -0.051469 -0.093990 0.088820
v -0.059726 -0.150705 0.036176
v -0.066270 -0.154804 0.049697
v -0.061376 -0.155037 0.064174
v -0.071341 -0.052648 0.043043
v -0.077525 -0.062500 0.054350
v -0.058081 -0.156201 0.076697
v -0.050120 -0.189133 0.066273
v -0.050980 -0.175127 0.083911
v -0.040783 -0.196930 -0.052549
v -0.032551 -0.214498 -0.077850
v -0.038465 -0.222156 -0.072275
v -0.039715 -0.219081 -0.034975
v -0.037620 -0.207662 -0.025474
v -0.033247 -0.236297 -0.055182
v -0.016240 -0.171115 -0.015469
v 0.002689 -0.159327 -0.024433
v -0.000560 -0.168576 -0.056962
v -0.028586 -0.201891 -0.021859
v -0.022133 -0.206972 -0.083256
v -0.022947 -0.185358 -0.002874
v -0.015397 -0.281772 -0.135437
v -0.003956 -0.284274 -0.171739
v 0.009959 -0.299190 -0.170227
v -0.010695 -0.283241 -0.088372
v -0.026864 -0.267446 -0.097781
v 0.003956 -0.107294 -0.157907
v 0.011688 -0.115620 -0.169430
v 0.029728 -0.125983 -0.173602
v 0.000738 -0.133072 -0.176468
v -0.010663 -0.107678 -0.163907
v 0.002773 -0.144969 -0.168635
v 0.006777 -0.269346 -0.208771
v 0.002172 -0.279039 -0.198046
v -0.010314 -0.268459 -0.197473
v -0.009325 -0.258690 -0.192897
v -0.001349 -0.253515 -0.206439
v 0.011512 -0.260465 -0.211055
v -0.015638 -0.134737 -0.314480
v -0.004869 -0.143243 -0.338331
v 0.008443 -0.137805 -0.284393
v -0.010864 -0.119758 -0.284958
v 0.013842 -0.257081 -0.201622
v -0.000260 -0.255490 -0.188588
v 0.010800 -0.260522 -0.186898
v -0.023563 -0.148507 -0.477842
v 0.006217 -0.142349 -0.373734
v -0.017829 -0.115066 -0.352472
v -0.015935 -0.117294 -0.427772
v -0.008102 -0.139538 -0.429423
v 0.000568 -0.158246 -0.399535
v -0.029078 -0.114824 -0.498887
v 0.003716 -0.093094 -0.499080
v 0.026752 -0.103627 -0.499440
v -0.015517 -0.080451 -0.498475
v -0.091039 -0.192179 -0.261566
v -0.075589 -0.208817 -0.254394
v -0.096932 -0.229560 -0.249697
v -0.089681 -0.189549 -0.253589
v -0.126335 -0.209515 -0.252569
v -0.117710 -0.211529 -0.269137
v -0.105567 -0.159434 -0.260373
v -0.122317 -0.203580 -0.231099
v -0.127307 -0.170614 -0.241987
v -0.107575 -0.155755 -0.248403
v -0.089077 -0.164494 -0.258143
v -0.115246 -0.134384 -0.265365
v -0.135963 -0.128679 -0.269006
v -0.095863 -0.131973 -0.266302
v -0.102552 -0.112571 -0.270338
v 0.003657 -0.056701 -0.488858
v -0.025767 -0.072551 -0.489112
v -0.001323 -0.106958 -0.202047
v 0.014241 -0.123164 -0.200385
v 0.000157 -0.099020 -0.095245
v 0.007187 -0.085723 -0.049615
v -0.006931 -0.048877 -0.053481
v -0.025258 0.001464 -0.119492
v -0.012953 -0.000519 -0.161666
v -0.008528 -0.026793 -0.172640
v -0.009963 0.004787 -0.078352
v -0.012659 0.006961 -0.056061
v -0.005680 0.053189 -0.051901
v 0.003336 0.083077 -0.069332
v -0.012378 0.095688 -0.118448
v 0.004400 0.078669 -0.047026
v 0.021069 0.122648 -0.176582
v 0.018717 0.133200 -0.232620
v 0.005688 0.110102 -0.230858
v -0.006161 0.099881 -0.190625
v -0.002921 0.095605 -0.146768
v 0.021532 0.119197 -0.158494
v -0.013454 0.071658 -0.157914
v -0.009615 0.037271 -0.183571
v -0.008225 0.024576 -0.169391
v -0.002495 0.113035 -0.499458
v 0.021068 0.127049 -0.499196
v 0.030911 0.104795 -0.498763
v -0.003217 0.082475 -0.498772
v -0.020438 0.103770 -0.499293
v 0.035896 0.086137 -0.498262
v -0.101419 0.116347 -0.266471
v -0.118939 0.108550 -0.263487
v -0.124175 0.114491 -0.278710
v -0.107447 0.131500 -0.277382
v -0.099184 0.135739 -0.263650
v -0.129168 0.129468 -0.279701
v -0.116950 0.127257 -0.259457
v -0.138720 0.156665 -0.251222
v -0.139955 0.161768 -0.259704
v -0.135478 0.174021 -0.261566
v -0.114165 0.150540 -0.268973
v -0.140347 0.152304 -0.226207
v -0.161711 0.168214 -0.214267
v -0.156277 0.174465 -0.260719
v -0.156826 0.205246 -0.271925
v -0.148451 0.191339 -0.267999
v -0.105163 0.196696 -0.272939
v -0.105482 0.188399 -0.251845
v -0.125512 0.175601 -0.243999
v -0.131164 0.203882 -0.276529
v -0.111230 0.157921 -0.259264
v -0.111764 0.159599 -0.242129
v -0.099307 0.140606 -0.246276
v -0.107131 0.152169 -0.220939
v -0.094490 0.124335 -0.240516
v -0.117491 0.165193 -0.216315
v -0.102195 0.142825 -0.180461
v -0.089741 0.115756 -0.185373
v -0.101978 0.106092 -0.231151
v -0.157255 0.212947 -0.239586
v -0.163370 0.215582 -0.260492
v -0.130851 0.223702 -0.278991
v -0.098030 0.221828 -0.272482
v -0.126090 0.235811 -0.265731
v -0.009479 0.133278 -0.499277
v -0.034092 0.126693 -0.497127
v -0.033270 0.097353 -0.497565
v 0.005372 0.258277 -0.211321
v 0.021129 0.264851 -0.211832
v 0.020093 0.260165 -0.200910
v 0.014189 0.262098 -0.188427
v 0.001826 0.253852 -0.194266
v -0.005129 0.256308 -0.201994
v 0.002740 0.268332 -0.208531
v -0.012279 0.272108 -0.190510
v -0.001910 0.280627 -0.194460
v -0.011945 0.261551 -0.186213
v -0.011596 0.283670 -0.089497
v -0.006859 0.287545 -0.167605
v -0.015760 0.265194 -0.155608
v -0.024785 0.247260 -0.108260
v 0.012512 0.292526 -0.080668
v 0.020885 0.306064 -0.129894
v 0.005187 0.296673 -0.173062
v -0.026256 0.191729 -0.064116
v -0.000421 0.169343 -0.063863
v 0.004601 0.165471 -0.034842
v -0.040767 0.195374 -0.052709
v -0.038555 0.206670 -0.065390
v -0.038112 0.199867 -0.031678
v -0.047510 0.205690 -0.040839
v -0.052351 0.175610 0.074481
v -0.055978 0.187743 0.057178
v -0.068523 0.147418 0.045800
v -0.065872 0.130986 0.084685
v -0.053437 0.148141 0.103067
v -0.063589 0.120758 0.075300
v -0.036929 0.115772 0.091206
v -0.041832 0.107514 0.099086
v -0.057159 0.121197 0.070452
v -0.047724 0.126137 0.066516
v -0.049887 0.091368 0.087616
v -0.054803 0.096951 0.087676
v -0.056710 0.108212 0.097446
v -0.057939 0.099900 0.089853
v -0.066200 0.099491 0.090669
v -0.073667 0.089507 0.119338
v -0.061962 0.097941 0.126557
v -0.062072 0.101051 0.089532
v -0.069746 0.087804 0.070978
v -0.076588 0.084643 0.072717
v -0.073141 0.083270 0.084366
v -0.071753 0.091360 0.072863
v -0.046673 0.117786 0.124663
v -0.049678 0.103952 0.138145
v -0.046189 0.084870 0.082994
v -0.046259 0.084415 0.082190
v -0.050540 0.086263 0.074515
v -0.045922 0.086600 0.086046
v -0.056510 0.098136 0.076614
v -0.073428 0.096502 0.074404
v -0.076132 0.075826 0.099014
v -0.075102 0.071659 0.119565
v -0.076361 0.077742 0.088203
v -0.079799 0.068048 0.073176
v -0.075120 0.063647 0.063461
v -0.062029 0.051507 0.130938
v -0.069429 0.011983 0.130059
v -0.052854 0.010455 0.138226
v -0.043565 0.008354 0.152292
v -0.029889 0.042097 0.156241
v -0.022188 0.071234 0.158574
v -0.046729 0.066976 0.149582
v -0.062641 0.068274 0.135166
v -0.069157 0.059376 0.071366
v -0.055311 0.054816 0.039622
v -0.057450 0.065013 0.037621
v -0.050535 0.071696 0.074697
v -0.036946 0.095477 0.055901
v -0.070240 0.049794 0.074898
v -0.070775 0.052729 0.115621
v -0.042635 0.091048 0.141604
v -0.061434 0.079885 0.136841
v -0.049433 0.080751 0.150935
v -0.049906 0.078686 0.081499
v -0.022540 0.028710 0.005100
v -0.021128 -0.041153 0.003968
v -0.016757 0.059606 0.002675
v -0.031781 0.175488 0.054179
v -0.027310 0.176939 0.045853
v -0.034163 0.157505 0.032267
v -0.048352 0.147643 0.042160
v -0.038359 0.181820 0.046350
v -0.022493 0.137573 0.023141
v -0.022439 0.129445 0.032047
v 0.022864 0.115051 0.020394
v 0.024464 0.112538 0.017649
v -0.030881 0.127190 0.057095
v -0.032952 0.106484 0.074531
v -0.036376 0.093010 0.085539
v -0.017349 0.034642 0.162436
v 0.011556 0.055019 0.152766
v 0.011500 0.075515 0.166683
v 0.013512 0.099565 -0.004197
v -0.004689 0.085954 0.000905
v 0.004264 0.232517 0.003875
v -0.015080 0.225018 -0.003662
v -0.012909 0.208262 0.004639
v 0.040721 0.212044 0.025839
v -0.001526 0.208136 0.045755
v -0.027799 0.190736 0.030012
v -0.017786 0.026550 0.482247
v -0.029763 0.042625 0.478189
v -0.043287 0.034772 0.481936
v -0.022618 0.019495 0.497627
v -0.089495 0.069165 0.302298
v -0.057038 0.041742 0.336523
v -0.072307 0.039309 0.344242
v -0.082327 0.034796 0.345615
v -0.110816 0.069121 0.318496
v -0.112344 0.081236 0.308401
v -0.104543 0.078831 0.297496
v -0.097800 0.090028 0.300776
v -0.107669 0.114842 0.309574
v -0.081517 0.103544 0.319474
v -0.081714 0.090424 0.315575
v -0.131166 0.092895 0.352083
v -0.120307 0.073434 0.383191
v -0.113815 0.100972 0.401533
v -0.137607 0.122312 0.382239
v -0.152172 0.113271 0.371118
v -0.157919 0.123876 0.351940
v -0.088367 0.117575 0.331127
v -0.108303 0.124351 0.329105
v -0.134828 0.097639 0.314534
v -0.162319 0.115510 0.319378
v -0.165691 0.110719 0.330898
v -0.147578 0.094926 0.341273
v -0.135759 0.076079 0.353468
v -0.081568 0.080581 0.305867
v -0.174821 0.117679 0.328693
v -0.172369 0.121062 0.323193
v -0.176895 0.116973 0.320135
v -0.173562 0.103540 0.325847
v -0.171085 0.106908 0.314752
v -0.151641 0.141727 0.353321
v -0.116674 0.126368 0.354208
v -0.086127 0.103409 0.386599
v -0.077694 0.103867 0.380911
v -0.057735 0.098470 0.368861
v -0.168405 0.147429 0.366300
v -0.171914 0.138363 0.367222
v -0.167350 0.134130 0.374387
v -0.173336 0.144460 0.379285
v -0.172218 0.151112 0.375813
v -0.165177 0.150001 0.373510
v -0.165459 0.145356 0.378884
v -0.157236 0.138352 0.377474
v -0.149793 0.145204 0.368499
v -0.122341 0.130526 0.372591
v -0.098626 0.106075 0.399608
v -0.082811 0.074317 0.458311
v -0.066950 0.080937 0.451193
v -0.053518 0.083142 0.438741
v -0.043434 0.082556 0.428347
v -0.035785 0.075028 0.416191
v -0.008444 0.045748 0.420203
v -0.035252 0.062346 0.407707
v -0.052486 0.082480 0.359300
v -0.037290 0.045682 0.397534
v -0.052346 0.068857 0.351227
v -0.036157 0.032865 0.387904
v -0.049483 0.055004 0.341551
v -0.039733 0.023042 0.383058
v -0.017741 0.020765 0.404909
v -0.048577 0.018453 0.383449
v -0.064600 0.016395 0.391026
v -0.076843 0.017182 0.398829
v -0.096294 0.035382 0.357094
v -0.086845 0.022198 0.412860
v -0.110377 0.041926 0.369950
v -0.135307 0.059331 0.341165
v -0.125411 0.055709 0.324668
v -0.157960 0.079318 0.330353
v -0.151346 0.081425 0.311925
v -0.118563 0.056602 0.379469
v -0.096149 0.027481 0.427907
v -0.096349 0.040757 0.441956
v -0.061796 -0.010912 0.449121
v -0.055632 0.006023 0.468679
v -0.049838 0.024593 0.477231
v -0.092245 0.059421 0.447823
v -0.034864 -0.011512 0.482366
v -0.028475 0.006248 0.491986
v 0.000406 -0.026007 0.473348
v 0.009763 -0.010988 0.481674
v 0.031164 -0.023242 0.431761
v 0.036320 -0.012602 0.436194
v 0.055624 -0.014268 0.388487
v 0.060759 -0.006896 0.387873
v 0.108150 -0.025371 0.357581
v 0.115646 -0.012131 0.360867
v 0.143963 -0.032239 0.312170
v 0.153801 -0.012277 0.321630
v 0.158662 0.000653 0.324126
v 0.171006 -0.011748 0.285361
v 0.155393 0.013327 0.319105
v 0.145819 0.035974 0.307081
v 0.157019 -0.037830 0.279732
v 0.109751 -0.078753 0.301875
v 0.086271 -0.055393 0.357168
v 0.051417 -0.068377 0.356367
v 0.017912 -0.060834 0.354181
v 0.044847 -0.023134 0.387804
v 0.029560 -0.029104 0.385766
v 0.014950 -0.028892 0.384961
v 0.001048 -0.019744 0.384524
v -0.008262 -0.038368 0.354032
v 0.010957 -0.034709 0.417807
v 0.002153 -0.032384 0.410757
v -0.013718 -0.045548 0.434654
v 0.020743 -0.030630 0.424969
v -0.010096 -0.040072 0.452890
v -0.038972 -0.029375 0.455726
v -0.039553 -0.038101 0.433912
v -0.062352 -0.018225 0.427506
v -0.018491 -0.011461 0.358372
v -0.006471 -0.006348 0.384832
v -0.006757 0.006410 0.385400
v -0.016541 0.008318 0.360647
v -0.003239 0.026195 0.360324
v -0.028218 0.048093 0.332131
v -0.049528 0.012526 0.325095
v 0.000082 0.018762 0.385772
v 0.014062 0.027867 0.386713
v 0.020392 0.041168 0.365094
v -0.004522 0.015346 0.405053
v 0.001765 0.023291 0.410515
v 0.010064 0.028980 0.415411
v 0.030313 0.029083 0.387707
v -0.015030 0.032088 0.414090
v 0.043565 0.041567 0.371282
v -0.046314 0.059402 0.279295
v -0.066870 0.014727 0.271648
v -0.042720 0.055599 0.226035
v -0.061208 0.013181 0.222145
v -0.059812 -0.018276 0.219477
v -0.059853 0.013895 0.201281
v -0.056600 -0.021376 0.199886
v -0.033224 -0.064542 0.196733
v -0.033785 -0.068971 0.207931
v -0.050341 -0.022627 0.188733
v -0.026935 -0.059666 0.186758
v -0.037325 -0.019828 0.187463
v -0.015963 -0.052713 0.191151
v -0.024661 -0.018441 0.192362
v -0.006385 -0.046332 0.192845
v -0.013906 -0.018012 0.186748
v 0.001223 -0.040629 0.188125
v -0.010708 -0.018896 0.173825
v 0.003385 -0.039403 0.174635
v 0.038584 -0.048738 0.173813
v 0.004111 -0.041076 0.160943
v 0.037398 -0.050374 0.162122
v 0.073513 -0.035139 0.154055
v 0.078918 -0.036145 0.162075
v 0.090547 -0.002108 0.149417
v 0.095923 -0.001681 0.155385
v 0.079996 0.028012 0.152780
v 0.084957 0.030597 0.160336
v 0.053371 0.046900 0.160872
v 0.057600 0.047006 0.174384
v 0.062289 0.059097 0.181696
v 0.021729 0.047550 0.178302
v 0.021135 0.056856 0.189491
v 0.015796 0.069520 0.191026
v 0.064441 0.072882 0.186645
v -0.007350 0.034103 0.188756
v -0.016313 0.040455 0.192896
v -0.025787 0.045726 0.187233
v -0.027506 0.007665 0.191736
v -0.040331 0.009714 0.186171
v -0.054731 0.012835 0.187866
v -0.036084 0.051665 0.191508
v -0.037678 0.053248 0.205689
v -0.015948 0.006026 0.187796
v -0.004093 0.030664 0.176713
v -0.012741 0.005245 0.174613
v -0.005663 0.030682 0.162196
v -0.016027 0.005535 0.159117
v -0.012136 -0.020613 0.158610
v -0.021827 0.005820 0.151384
v -0.018135 -0.023088 0.152068
v 0.002257 -0.044061 0.150176
v 0.036247 -0.057923 0.145705
v 0.036313 -0.051160 0.149158
v 0.071276 -0.039158 0.135173
v 0.072372 -0.036582 0.143252
v 0.092885 -0.001657 0.130022
v 0.092161 -0.001803 0.139439
v 0.083282 0.032154 0.130108
v 0.079912 0.029051 0.140713
v 0.050702 0.056400 0.141244
v 0.050901 0.049043 0.146212
v 0.017737 0.047227 0.151179
v 0.019616 0.047701 0.164568
v -0.009703 0.032884 0.150837
v -0.032907 0.006654 0.162399
v 0.051209 0.058890 0.147003
v 0.061326 0.068132 0.152420
v 0.016797 0.091884 0.170588
v 0.019060 0.106609 0.160815
v -0.021902 0.099367 0.156883
v -0.025374 0.087291 0.166114
v 0.025725 0.112933 0.167254
v -0.026189 0.114128 0.160872
v 0.028478 0.134877 0.158911
v -0.021251 0.128751 0.149364
v 0.030906 0.164889 0.145208
v -0.021001 0.165197 0.136958
v 0.031320 0.211927 0.103930
v -0.019243 0.207987 0.100000
v 0.033295 0.224093 0.079272
v -0.018912 0.223715 0.077372
v 0.033869 0.228462 0.063055
v -0.015011 0.226993 0.060242
v -0.048446 0.188700 0.044164
v -0.009506 0.215394 0.056978
v -0.060001 0.145988 0.035624
v -0.005613 0.204679 0.064903
v -0.000092 0.197784 0.058673
v 0.066286 0.201446 0.052886
v 0.066949 0.195472 0.066965
v 0.080726 0.171571 0.055606
v 0.079443 0.180480 0.045920
v 0.070120 0.182113 0.085454
v 0.085763 0.152508 0.069585
v 0.092486 0.134659 0.064881
v 0.073204 0.146462 0.117352
v 0.076942 -0.046247 0.137333
v 0.039475 -0.061551 0.152885
v 0.045181 -0.073989 0.161065
v 0.051347 -0.080220 0.162017
v 0.007656 -0.106319 0.160673
v 0.009998 -0.120118 0.171186
v -0.027574 -0.124566 0.146273
v 0.014564 -0.137479 0.161284
v -0.024218 -0.152917 0.138902
v 0.021831 -0.158907 0.150446
v 0.065459 -0.145491 0.127616
v 0.027128 -0.206125 0.115282
v -0.022039 -0.201220 0.108042
v -0.017753 -0.218266 0.082178
v 0.029337 -0.222003 0.083638
v -0.018389 -0.227218 0.067504
v 0.032232 -0.231652 0.070048
v 0.069137 -0.200668 0.057097
v -0.012409 -0.221058 0.058175
v 0.032009 -0.223505 0.057501
v 0.064972 -0.198813 0.045627
v -0.042287 -0.191433 0.045370
v -0.050256 -0.194726 0.052388
v -0.051423 -0.140316 0.110504
v -0.049701 -0.111871 0.125510
v -0.023381 0.198587 -0.014298
v -0.034150 0.173224 0.012992
v -0.024154 0.152131 0.001329
v 0.011681 0.131947 -0.007907
v 0.022460 0.118396 0.014575
v 0.045562 0.139416 0.002502
v 0.048749 0.125840 0.026107
v 0.054443 0.112375 0.032809
v 0.083725 0.104778 0.039716
v 0.066748 0.111903 0.024000
v 0.089098 0.101512 0.059093
v 0.075887 0.118076 0.074576
v 0.031038 0.166442 -0.024347
v 0.032176 0.169400 -0.052232
v -0.032703 0.211156 -0.020960
v 0.002977 0.254177 0.006206
v -0.020540 0.241813 -0.008017
v -0.038588 0.219963 -0.026966
v -0.018981 0.259113 -0.027818
v -0.033151 0.235198 -0.052614
v -0.041659 0.217882 -0.063867
v -0.015358 0.233516 -0.111025
v -0.008164 0.251915 -0.156387
v 0.005214 0.245223 -0.156631
v -0.004238 0.222746 -0.113637
v -0.002884 0.257215 -0.179792
v 0.008004 0.260872 -0.172761
v 0.031493 0.269879 -0.179717
v 0.035520 0.266608 -0.194600
v 0.051156 0.262352 -0.187329
v 0.038279 0.267837 -0.208539
v 0.016440 0.277373 -0.211003
v 0.011284 0.290046 -0.198910
v 0.006200 0.272558 -0.017812
v 0.037311 0.285659 -0.082322
v 0.045890 0.297469 -0.130855
v 0.029072 0.089175 -0.030645
v 0.012561 0.073499 -0.030269
v 0.004745 0.048645 -0.025128
v 0.000980 0.014111 -0.024687
v 0.020828 0.065540 -0.040163
v 0.010533 0.043469 -0.042240
v 0.004804 0.008950 -0.043973
v 0.008700 -0.037216 -0.042588
v 0.004747 -0.036501 -0.025634
v -0.000716 0.048095 -0.041607
v -0.009014 0.008211 -0.044873
v -0.002663 -0.042283 -0.042738
v 0.013936 -0.077515 -0.039353
v 0.022172 -0.068229 -0.040122
v 0.043979 -0.080622 -0.041037
v 0.015256 -0.072066 -0.030304
v 0.040655 -0.093227 -0.038387
v 0.036948 -0.109518 -0.051281
v 0.038417 -0.116458 -0.076587
v -0.011037 -0.078811 0.003959
v 0.012656 0.071904 -0.038301
v 0.038854 0.078811 -0.039685
v 0.034024 0.089792 -0.037706
v 0.028829 0.099476 -0.043208
v 0.064633 0.115824 -0.066465
v 0.024609 0.107037 -0.062555
v 0.008405 0.124165 -0.112523
v -0.068616 0.073621 0.038196
v -0.064003 0.077745 0.036599
v -0.060330 0.084183 0.035672
v -0.061518 0.093008 0.036438
v -0.080320 0.077818 -0.011181
v -0.070901 0.084960 -0.013025
v -0.071074 0.097322 -0.012750
v -0.075027 0.108044 -0.009719
v -0.064206 0.099223 0.037792
v -0.081294 0.086474 -0.067411
v -0.078179 0.102419 -0.066641
v -0.085243 0.116273 -0.063150
v -0.078261 0.130922 -0.059210
v -0.071909 0.119414 -0.006906
v -0.083491 0.109422 -0.125320
v -0.092972 0.127373 -0.121458
v -0.085720 0.144226 -0.115716
v -0.077947 0.161407 -0.109066
v -0.074567 0.145709 -0.054376
v -0.097327 0.160737 -0.171000
v -0.083722 0.179402 -0.164664
v -0.103079 0.192148 -0.155375
v -0.095016 0.170822 -0.102447
v -0.105225 0.176098 -0.216011
v -0.090463 0.198343 -0.212639
v -0.113922 0.213575 -0.206749
v -0.147637 0.200563 -0.206623
v -0.130851 0.181297 -0.153315
v -0.094963 0.214350 -0.249754
v -0.121568 0.228339 -0.242781
v -0.146348 0.157190 -0.159059
v -0.129263 0.142061 -0.103317
v -0.115969 0.162138 -0.100936
v -0.113859 0.128101 -0.051191
v -0.104030 0.143268 -0.049645
v -0.088299 0.150787 -0.050382
v -0.094050 0.127096 -0.001685
v -0.082337 0.133607 -0.001340
v -0.071433 0.131001 -0.003122
v -0.074295 0.116859 0.043299
v -0.066266 0.115721 0.041891
v -0.064511 0.107921 0.039722
v -0.059288 0.103529 0.076610
v -0.065044 0.105167 0.077100
v -0.070482 0.103187 0.076555
v -0.082039 0.113178 0.043652
v -0.086150 0.105424 0.042348
v -0.099871 0.116385 -0.003157
v -0.097269 0.103853 -0.006551
v -0.084178 0.096596 0.038966
v -0.109947 0.111415 -0.056227
v -0.097731 0.100220 -0.061370
v -0.087248 0.094348 -0.010777
v -0.120660 0.121100 -0.111557
v -0.107717 0.107212 -0.118857
v -0.129677 0.102038 -0.113948
v -0.116361 0.095088 -0.057224
v -0.136380 0.138897 -0.172056
v -0.113761 0.117193 -0.186468
v -0.144179 0.112853 -0.180787
v -0.115770 0.124326 -0.238193
v -0.151810 0.124079 -0.230588
v -0.173439 0.097134 -0.227489
v -0.160043 0.088861 -0.179550
v -0.141456 0.081971 -0.112830
v -0.153626 0.055509 -0.182280
v -0.134744 0.055969 -0.115424
v -0.119083 0.057714 -0.057752
v -0.124975 0.078086 -0.055816
v -0.105086 0.060083 -0.007857
v -0.110148 0.075292 -0.006425
v -0.102835 0.088988 -0.007194
v -0.095479 0.075324 0.040133
v -0.089234 0.085065 0.038105
v -0.078412 0.089563 0.036172
v -0.082551 0.076780 0.074260
v -0.091656 0.064661 0.039047
v -0.090169 0.053051 -0.010697
v -0.080220 0.060062 0.037028
v -0.081958 0.045703 -0.011155
v -0.075020 0.054126 0.037520
v -0.101898 0.047126 -0.061170
v -0.087091 0.038146 -0.062465
v -0.112357 0.041777 -0.119111
v -0.091810 0.035138 -0.120355
v -0.088191 0.012977 -0.116463
v -0.100801 0.033746 -0.183928
v -0.091844 0.011244 -0.181033
v -0.089484 -0.013748 -0.180348
v -0.087280 -0.009715 -0.115467
v -0.095100 -0.035940 -0.181868
v -0.084979 -0.031178 -0.117115
v -0.118114 -0.043949 -0.179577
v -0.100043 -0.045044 -0.114953
v -0.087304 -0.047745 -0.056494
v -0.118720 -0.056203 -0.110932
v -0.103545 -0.055946 -0.053170
v -0.089799 -0.057003 0.000382
v -0.077155 -0.046360 -0.002838
v -0.108826 -0.071874 -0.050375
v -0.096370 -0.070303 0.003184
v -0.082833 -0.071817 0.055542
v -0.091905 -0.084163 0.003159
v -0.079838 -0.081814 0.054365
v -0.078699 -0.093672 0.002046
v -0.072744 -0.088853 0.053237
v -0.066448 -0.087048 0.085174
v -0.075177 -0.095984 0.055766
v -0.072826 -0.092090 0.103269
v -0.074343 -0.103513 0.058665
v -0.083777 -0.105533 0.005300
v -0.082335 -0.116712 0.008007
v -0.076476 -0.125088 0.010460
v -0.069062 -0.108787 0.060481
v -0.091795 -0.115243 -0.046630
v -0.090007 -0.132000 -0.043434
v -0.080683 -0.144176 -0.041157
v -0.067731 -0.143480 -0.043138
v -0.067797 -0.124425 0.009678
v -0.099041 -0.147524 -0.097900
v -0.086090 -0.162048 -0.094989
v -0.069732 -0.161247 -0.097740
v -0.070532 -0.144847 -0.104758
v -0.067941 -0.129315 -0.048824
v -0.096488 -0.180694 -0.148514
v -0.073436 -0.182196 -0.149541
v -0.072670 -0.161420 -0.156959
v -0.082781 -0.143450 -0.163144
v -0.077017 -0.127508 -0.110401
v -0.082149 -0.204835 -0.193660
v -0.073884 -0.179708 -0.202712
v -0.089282 -0.161973 -0.208723
v -0.079771 -0.140325 -0.217693
v -0.075928 -0.123079 -0.169494
v -0.074204 -0.197907 -0.234394
v -0.094858 -0.177833 -0.235795
v -0.084816 -0.155304 -0.244540
v -0.086866 -0.113436 -0.254493
v -0.083272 -0.109333 -0.224933
v -0.119257 -0.095118 -0.224167
v -0.108162 -0.087698 -0.174304
v -0.082497 -0.098573 -0.174917
v -0.128507 -0.093546 -0.250189
v -0.126766 -0.063933 -0.253987
v -0.121305 -0.064462 -0.229433
v -0.135246 -0.089183 -0.266491
v -0.130228 -0.062533 -0.268899
v -0.105473 -0.052429 -0.274615
v -0.101775 -0.053523 -0.259534
v -0.141881 -0.087687 -0.273010
v -0.137537 -0.057030 -0.276561
v -0.111191 -0.044296 -0.282429
v -0.090673 -0.025777 -0.287934
v -0.082969 -0.027904 -0.278777
v -0.143864 -0.046125 -0.269438
v -0.113585 -0.037487 -0.274693
v -0.095328 -0.021199 -0.277757
v -0.095198 0.007512 -0.279164
v -0.089413 0.010204 -0.288934
v -0.111186 -0.037002 -0.259372
v -0.094237 -0.018940 -0.261455
v -0.095225 0.007466 -0.261808
v -0.107967 0.029965 -0.260897
v -0.109761 0.030493 -0.276370
v -0.092251 -0.016984 -0.234728
v -0.094484 0.009225 -0.234789
v -0.105268 0.031718 -0.235327
v -0.133693 0.035295 -0.234362
v -0.138007 0.034414 -0.256491
v -0.124680 0.037809 -0.184803
v -0.167664 0.056908 -0.229348
v -0.179488 0.101240 -0.248318
v -0.173619 0.057180 -0.249220
v -0.183527 0.102981 -0.261226
v -0.177145 0.057775 -0.263769
v -0.140845 0.034586 -0.272195
v -0.171586 0.063343 -0.273925
v -0.140406 0.043611 -0.281676
v -0.107213 0.035496 -0.285998
v -0.135712 0.052990 -0.273440
v -0.100796 0.044002 -0.278201
v -0.082953 0.011258 -0.279474
v -0.097784 0.045309 -0.263513
v -0.079581 0.011466 -0.264061
v -0.079562 -0.027954 -0.263227
v -0.077007 0.010544 -0.241107
v -0.076358 -0.027324 -0.240751
v -0.095692 -0.053444 -0.237933
v -0.071351 -0.027409 -0.190825
v -0.085388 -0.053359 -0.187906
v -0.107189 -0.062970 -0.179260
v -0.070951 -0.052145 -0.124407
v -0.089122 -0.063194 -0.120529
v -0.097089 -0.080170 -0.117381
v -0.073773 -0.063553 -0.060628
v -0.084549 -0.073566 -0.058007
v -0.074255 -0.084556 -0.059471
v -0.080535 -0.089400 -0.118318
v -0.067694 -0.100126 -0.058767
v -0.071436 -0.109125 -0.115454
v -0.072185 -0.115284 -0.053897
v -0.063026 -0.092768 0.000830
v -0.066335 -0.103200 0.002789
v -0.066781 -0.114407 0.006126
v -0.058848 -0.101519 0.058766
v -0.062342 -0.107142 0.059932
v -0.065557 -0.082760 0.001525
v -0.073747 -0.071557 0.003092
v -0.063963 -0.065622 0.002739
v -0.062375 -0.050148 -0.061970
v -0.061520 -0.029277 -0.059005
v -0.065155 -0.025539 -0.122973
v -0.068201 0.008153 -0.122621
v -0.066786 0.002531 -0.054165
v -0.072363 0.009295 -0.192087
v -0.084311 0.043663 -0.194028
v -0.071749 0.040575 -0.126383
v -0.093239 0.045073 -0.241460
v -0.124367 0.055224 -0.235732
v -0.109067 0.056972 -0.189703
v -0.131248 0.053883 -0.258043
v -0.154757 0.069110 -0.253519
v -0.145882 0.068488 -0.229593
v -0.160252 0.068385 -0.268783
v -0.164139 0.096230 -0.267905
v -0.157376 0.094699 -0.253056
v -0.176961 0.099972 -0.271485
v -0.155120 0.124017 -0.276914
v -0.148038 0.112831 -0.272394
v -0.164346 0.128601 -0.264535
v -0.149666 0.130297 -0.255274
v -0.140493 0.109374 -0.257544
v -0.127256 0.104375 -0.233011
v -0.148103 0.092928 -0.228096
v -0.107619 0.096320 -0.185064
v -0.131196 0.088890 -0.179941
v -0.130075 0.066637 -0.182039
v -0.112329 0.084371 -0.122146
v -0.109962 0.064756 -0.122610
v -0.087954 0.058513 -0.126447
v -0.092206 0.066556 -0.064542
v -0.074484 0.058900 -0.065511
v -0.065081 0.040369 -0.062541
v -0.064175 0.061829 -0.006385
v -0.060884 0.039917 0.013128
v -0.080928 0.069593 -0.009571
v -0.094732 0.080114 -0.064844
v -0.092822 0.089439 -0.126126
v -0.105851 -0.037406 -0.233774
v -0.139416 -0.045196 -0.254134
v -0.133802 -0.045189 -0.231849
v -0.156171 -0.081397 -0.250429
v -0.150801 -0.075141 -0.228699
v -0.137012 -0.064273 -0.176248
v -0.141757 -0.109473 -0.228160
v -0.134963 -0.092587 -0.175228
v -0.121946 -0.077934 -0.108946
v -0.118511 -0.113340 -0.175606
v -0.111609 -0.098221 -0.109277
v -0.102333 -0.089470 -0.049331
v -0.090555 -0.107189 -0.111709
v -0.085185 -0.099720 -0.050461
v -0.100273 -0.126362 -0.104935
v -0.095622 -0.117381 -0.177323
v -0.109026 -0.140164 -0.165382
v -0.111737 -0.161709 -0.154207
v -0.110348 -0.152510 -0.220168
v -0.124958 -0.170096 -0.207086
v -0.111733 -0.195919 -0.196991
v -0.091910 -0.221364 -0.227782
v -0.095147 -0.127173 -0.233390
v -0.095751 -0.130228 -0.254311
v -0.120406 -0.127352 -0.230220
v -0.117114 -0.132618 -0.254758
v -0.141812 -0.121192 -0.252254
v -0.158664 -0.084532 -0.264649
v -0.083868 0.017153 0.093818
v -0.072135 0.014431 0.108786
v -0.059899 -0.021344 0.138213
v -0.072957 0.017965 0.077358
v -0.079183 -0.034593 0.092438
v -0.038816 0.092971 -0.484467
v -0.039040 0.128330 -0.485020
v -0.008003 0.069305 -0.497604
v -0.009905 0.060423 -0.485166
v -0.006691 0.063323 -0.467779
v -0.033351 0.092141 -0.465058
v -0.016272 0.094417 -0.431690
v -0.017267 0.123909 -0.431588
v -0.033474 0.126495 -0.465543
v 0.004887 0.071592 -0.439303
v 0.014759 0.070897 -0.406060
v -0.007494 0.091605 -0.399626
v -0.013970 0.113894 -0.359512
v -0.013035 0.121814 -0.397552
v -0.002039 0.140179 -0.354669
v -0.007149 0.148573 -0.393479
v 0.020644 0.161581 -0.390448
v 0.057315 0.153368 -0.384783
v 0.058302 0.154859 -0.407707
v 0.079642 0.133206 -0.381018
v 0.078154 0.135500 -0.400972
v 0.084976 0.141980 -0.415107
v 0.068999 0.163629 -0.424936
v 0.085212 0.114243 -0.403261
v 0.093575 0.121482 -0.416498
v 0.082302 0.097027 -0.412590
v 0.096136 0.102082 -0.428417
v 0.083368 0.109117 -0.382334
v 0.075114 0.090498 -0.384344
v 0.076674 0.082452 -0.352433
v 0.068455 0.066846 -0.352786
v 0.063751 0.078333 -0.384707
v 0.079954 0.103141 -0.353546
v 0.090384 0.101657 -0.323275
v 0.083193 0.077887 -0.320389
v 0.077140 0.124477 -0.354405
v 0.090130 0.119770 -0.323916
v 0.111340 0.117847 -0.290110
v 0.108615 0.100420 -0.293278
v 0.103249 0.130829 -0.282655
v 0.108034 0.117103 -0.229214
v 0.114601 0.103286 -0.233075
v 0.090419 0.143410 -0.275534
v 0.097226 0.127494 -0.227124
v 0.073245 0.141382 -0.225871
v 0.045184 0.145066 -0.227899
v 0.045611 0.129726 -0.173976
v 0.043966 0.125016 -0.155489
v 0.081865 0.124578 -0.159172
v 0.102097 0.101302 -0.150962
v 0.107986 0.083526 -0.182814
v 0.110274 0.064908 -0.191424
v 0.114577 0.085347 -0.238886
v 0.107037 0.047547 -0.200294
v 0.107436 0.067196 -0.246959
v 0.100443 0.076451 -0.296163
v 0.089999 0.051162 -0.254972
v 0.082615 0.060270 -0.292499
v 0.075367 0.058941 -0.315270
v 0.059108 0.041991 -0.291741
v 0.061803 0.038290 -0.258659
v 0.026963 0.040396 -0.259980
v 0.021649 0.038345 -0.286685
v 0.003761 0.060898 -0.257356
v -0.008295 0.058049 -0.280591
v -0.005629 0.086851 -0.249176
v -0.019109 0.089526 -0.272529
v -0.014052 0.091822 -0.288254
v -0.009989 0.119694 -0.265336
v -0.006656 0.119090 -0.283798
v -0.016608 0.139212 -0.323189
v -0.023638 0.102249 -0.326809
v -0.011192 0.082047 -0.200229
v -0.004394 0.048832 -0.214364
v 0.023720 0.022156 -0.219345
v 0.022749 0.013543 -0.196268
v 0.023705 0.008507 -0.186830
v 0.065603 0.017306 -0.216097
v 0.095037 0.030265 -0.209647
v 0.023095 -0.002005 -0.185459
v 0.023106 -0.011796 -0.192847
v 0.022202 -0.022837 -0.218305
v -0.003907 -0.053476 -0.219192
v -0.003996 -0.060450 -0.264258
v -0.012226 -0.089860 -0.258887
v -0.009025 -0.081902 -0.210175
v 0.024277 -0.041573 -0.259801
v 0.017928 -0.045631 -0.294056
v -0.008132 -0.062819 -0.288327
v 0.058712 -0.035282 -0.254764
v 0.054042 -0.042452 -0.295410
v 0.053465 -0.042146 -0.328912
v 0.016006 -0.047382 -0.331703
v 0.091744 -0.047228 -0.243350
v 0.083713 -0.059096 -0.290179
v 0.077585 -0.058694 -0.326002
v 0.067896 -0.076645 -0.367211
v 0.048170 -0.068321 -0.363922
v 0.104581 -0.080214 -0.289747
v 0.084373 -0.083962 -0.324929
v 0.074892 -0.092971 -0.364900
v 0.089452 -0.108993 -0.326366
v 0.078825 -0.113764 -0.361695
v 0.087691 -0.121654 -0.385941
v 0.083920 -0.124849 -0.401938
v 0.070691 -0.130376 -0.358365
v 0.075570 -0.142348 -0.384763
v 0.073335 -0.142986 -0.402001
v 0.077104 -0.148186 -0.415309
v 0.088082 -0.129378 -0.412166
v 0.051866 -0.157451 -0.388480
v 0.023466 -0.165365 -0.395776
v 0.083525 -0.127622 -0.324232
v 0.113093 -0.105273 -0.285199
v 0.109470 -0.128352 -0.277246
v 0.094534 -0.142101 -0.269821
v 0.065476 -0.133283 -0.197815
v 0.066575 -0.153919 -0.257880
v 0.037348 -0.133660 -0.199146
v 0.038002 -0.147121 -0.250459
v 0.015638 -0.131794 -0.250392
v -0.003317 -0.113057 -0.253391
v -0.017387 -0.092098 -0.284377
v -0.024020 -0.104023 -0.323895
v -0.013420 -0.069952 -0.330245
v -0.005284 -0.080863 -0.359082
v 0.022705 -0.060833 -0.362780
v 0.059701 -0.128444 -0.169614
v 0.108441 -0.065212 -0.229012
v 0.051139 0.114534 -0.491285
v 0.059499 0.098230 -0.490263
v 0.064884 0.121671 -0.499771
v 0.070637 0.102449 -0.498212
v 0.037723 0.138633 -0.491129
v 0.053628 0.149753 -0.499903
v -0.041251 -0.113933 -0.491289
v -0.040314 -0.113915 -0.474547
v -0.025414 -0.073618 -0.473745
v 0.005925 -0.056999 -0.477820
v -0.029125 -0.114043 -0.459130
v -0.018652 -0.144321 -0.461916
v 0.049876 -0.112439 -0.491376
v 0.030436 -0.265568 -0.199898
v -0.004662 -0.257418 -0.171670
v 0.008499 -0.260328 -0.167906
v -0.009643 -0.244270 -0.151703
v -0.013648 -0.263026 -0.172685
v -0.016592 -0.257970 -0.146222
v -0.018471 -0.242735 -0.111089
v -0.008495 -0.230998 -0.120791
v -0.020103 -0.270923 -0.142127
v -0.027594 -0.251551 -0.107609
v -0.014830 -0.276229 -0.173119
v 0.028919 -0.268768 -0.211194
v 0.025745 -0.281424 -0.210653
v 0.048425 -0.297551 -0.196855
v 0.021003 -0.295515 -0.200380
v -0.021303 -0.259528 -0.036595
v -0.001368 -0.273190 -0.025480
v -0.023525 -0.243145 -0.013105
v -0.019721 -0.229178 -0.004212
v -0.013531 -0.218056 -0.004669
v -0.019396 -0.205388 0.009974
v -0.000800 -0.211881 0.041922
v 0.018726 -0.276228 -0.022825
v 0.036420 -0.264677 -0.028014
v 0.031323 -0.169032 -0.055838
v 0.028172 -0.159730 -0.021736
v 0.034554 -0.131204 0.001911
v 0.034599 -0.121965 0.016539
v 0.053478 -0.204869 -0.078220
v -0.037469 -0.094861 0.070828
v 0.071930 -0.108732 0.034719
v 0.138301 -0.026948 -0.108311
v 0.142914 -0.000195 -0.117917
v 0.158764 -0.000658 -0.089279
v 0.141376 -0.028572 -0.147279
v 0.148944 -0.002183 -0.150048
v 0.142921 0.024832 -0.155622
v 0.140000 0.044990 -0.160841
v 0.139604 0.052987 -0.203427
v 0.153742 0.025713 -0.243693
v 0.148941 0.032754 -0.254575
v 0.130876 0.063184 -0.209436
v 0.138375 0.030184 -0.259154
v 0.122338 0.054108 -0.212098
v 0.119674 0.052505 -0.173648
v 0.126122 0.040891 -0.211679
v 0.123475 0.038878 -0.177493
v 0.137131 0.019619 -0.251255
v 0.146909 0.014179 -0.273517
v 0.142595 0.004821 -0.268208
v 0.140847 -0.007466 -0.260381
v 0.135349 -0.027636 -0.250162
v 0.148273 -0.003579 -0.279513
v 0.146968 -0.014816 -0.273730
v 0.142961 -0.032531 -0.261320
v 0.131526 -0.062520 -0.222683
v 0.123278 -0.052821 -0.217062
v 0.156750 -0.012603 -0.271797
v 0.152067 -0.027366 -0.258354
v 0.143583 -0.049684 -0.223255
v 0.157592 -0.017114 -0.251097
v 0.147926 -0.030811 -0.221373
v 0.144338 -0.031388 -0.184918
v 0.158850 -0.004081 -0.265908
v 0.159828 0.006523 -0.257591
v 0.158668 0.005561 -0.274021
v 0.155722 0.014509 -0.267646
v 0.150321 0.006949 -0.279352
v 0.158904 -0.003569 -0.276347
v 0.136836 -0.005639 0.097911
v 0.145263 0.017032 -0.005758
v 0.153946 0.016850 0.030094
v 0.138494 0.017722 -0.041088
v 0.141419 0.030368 0.149888
v 0.137679 -0.032500 0.151218
v 0.151205 -0.029243 0.156763
v 0.052159 -0.221671 -0.112124
v 0.132234 -0.197390 -0.480593
v 0.132253 -0.198167 -0.497014
v 0.165976 -0.177592 -0.482421
v 0.174395 -0.154213 -0.484547
v 0.163064 -0.121898 -0.485004
v 0.128864 -0.020507 -0.182320
v 0.086143 0.088672 -0.447928
v 0.141065 0.103192 -0.478947
v 0.138670 0.098628 -0.495081
v 0.168979 0.141023 -0.481330
v 0.170959 0.165225 -0.480505
v 0.158500 0.183459 -0.481049
v 0.120602 0.202790 -0.482612
v 0.121028 0.202536 -0.496140
v 0.120232 0.186909 -0.499599
v 0.134864 0.110006 -0.499144
v 0.076875 -0.179243 0.043235
v 0.075301 -0.184324 0.052522
v 0.098749 0.101871 -0.146135
v 0.093244 0.110714 -0.149307
v 0.134651 0.003630 -0.051307
v 0.128474 0.001961 -0.051251
v 0.134443 -0.001020 -0.051959
v 0.128827 -0.003351 -0.051658
v 0.134569 0.001799 -0.051564
v 0.132497 0.001472 -0.051512
v 0.132484 0.003044 -0.051288
v 0.130433 0.002490 -0.051269
v 0.130488 0.000914 -0.051493
v 0.128576 0.000428 -0.051368
v 0.132767 -0.001716 -0.051869
v 0.132444 -0.000069 -0.051725
v 0.134508 0.000432 -0.051755
v 0.128702 -0.001481 -0.051515
v 0.130577 -0.000916 -0.051630
v 0.130894 -0.002493 -0.051769
v 0.074795 0.119404 0.075446
v 0.074873 0.119556 0.073208
v 0.074007 0.121082 0.072672
v 0.074251 0.120217 0.076254
v 0.074961 0.118217 0.078269
v 0.075326 0.118280 0.076007
v 0.075511 0.118434 0.073602
v 0.075854 0.117131 0.076187
v 0.076148 0.117313 0.073997
v 0.075550 0.116944 0.078452
v 0.074432 0.118926 0.079322
v 0.075235 0.116749 0.080798
v 0.073541 0.121345 0.076784
v 0.072966 0.122914 0.072028
f 1 260 261 2
f 1 262 24 263
f 264 265 1 2
f 1 265 7 266
f 1 266 267 262
f 3 268 4 37
f 3 37 269 270
f 3 270 271 272
f 4 268 273 6
f 270 274 275 276
f 5 278 18 17
f 5 17 16 279
f 6 280 37 4
f 6 15 281 282
f 8 16 17 18
f 7 279 16 8
f 7 8 18 283
f 7 283 284 266
f 9 14 261 260
f 9 260 285 286
f 9 11 13 14
f 9 287 288 11
f 9 286 289 287
f 278 291 11 10
f 10 292 293 290
f 10 11 288 292
f 11 291 294 295
f 12 296 18 278
f 12 290 297 296
f 15 298 299 300
f 18 301 302 283
f 19 303 304 305
f 19 305 306 20
f 19 20 307 308
f 20 306 309 307
f 21 19 308 310
f 21 311 312 313
f 21 314 315 311
f 21 310 316 314
f 22 317 24 23
f 319 320 317 22
f 22 23 318 319
f 23 24 262 321
f 25 267 266 284
f 25 322 249 267
f 24 317 323 263
f 25 26 324 322
f 25 284 27 26
f 26 325 326 324
f 26 327 328 325
f 26 27 302 327
f 27 284 283 302
f 329 330 331 50
f 28 332 333 334
f 28 334 335 336
f 28 337 338 332
f 28 330 339 337
f 29 30 340 341
f 29 342 343 30
f 29 344 345 342
f 29 341 346 347
f 31 348 349 32
f 31 350 351 348
f 33 354 355 356
f 40 357 358 359
f 33 40 359 354
f 34 360 274 361
f 363 364 360 34
f 34 361 362 363
f 35 365 366 367
f 35 367 364 363
f 35 359 358 365
f 36 269 37 368
f 37 280 369 368
f 38 370 371 352
f 38 355 372 370
f 39 375 376 377
f 40 33 378 357
f 41 379 346 380
f 42 381 382 383
f 42 340 384 381
f 42 383 341 340
f 51 43 385 329
f 51 329 50 386
f 43 387 388 385
f 43 51 52 389
f 44 390 391 392
f 44 392 53 393
f 44 393 45 390
f 45 393 388 387
f 45 387 394 390
f 46 395 52 396
f 46 396 397 49
f 46 49 398 395
f 47 51 386 48
f 47 48 397 396
f 47 396 52 51
f 48 386 399 397
f 49 397 399 398
f 50 400 399 386
f 50 331 336 400
f 52 395 54 401
f 52 401 402 389
f 53 403 388 393
f 53 392 404 405
f 53 405 406 403
f 54 395 398 407
f 54 408 409 410
f 54 410 411 401
f 55 412 413 414
f 55 414 415 416
f 56 417 418 419
f 421 422 417 56
f 56 419 420 421
f 57 423 424 422
f 57 425 426 423
f 57 422 421 425
f 58 219 427 428
f 58 429 430 60
f 58 60 431 432
f 58 432 433 219
f 59 429 434 435
f 437 430 429 59
f 59 435 436 437
f 60 430 438 439
f 60 439 440 431
f 61 441 442 443
f 61 443 444 445
f 61 445 446 441
f 62 447 448 449
f 62 449 450 451
f 62 451 452 447
f 63 453 454 455
f 63 456 457 453
f 63 455 458 456
f 64 459 442 460
f 64 461 462 459
f 64 460 463 461
f 464 465 65 466
f 65 467 468 469
f 65 469 470 466
f 67 473 474 475
f 67 475 476 477
f 67 477 478 479
f 67 479 480 473
f 68 481 482 69
f 68 69 483 484
f 69 482 485 486
f 70 416 487 72
f 70 72 488 489
f 71 74 491 492
f 73 493 494 495
f 73 496 497 493
f 73 498 499 496
f 73 500 501 498
f 73 495 502 500
f 74 353 503 504
f 75 76 506 507
f 75 507 508 78
f 75 78 509 76
f 76 510 511 506
f 77 512 513 514
f 77 514 515 516
f 77 516 517 512
f 78 508 518 509
f 79 519 520 86
f 86 520 521 522
f 79 86 522 523
f 80 85 524 81
f 82 525 83 84
f 80 82 84 85
f 80 81 526 527
f 80 527 528 529
f 80 529 530 82
f 81 521 531 532
f 81 532 533 526
f 82 530 534 535
f 84 83 536 85
f 87 539 540 541
f 87 542 532 531
f 87 531 543 539
f 87 541 499 498
f 87 498 501 542
f 88 91 544 545
f 88 545 546 547
f 88 547 548 549
f 88 549 550 91
f 89 551 552 90
f 89 553 554 551
f 89 90 555 553
f 90 552 544 556
f 90 557 558 555
f 90 556 559 557
f 91 560 556 544
f 91 92 561 560
f 92 562 563 564
f 92 564 565 561
f 93 566 567 568
f 93 569 570 566
f 93 568 571 569
f 94 570 569 572
f 94 573 574 570
f 94 572 575 573
f 95 576 577 578
f 95 579 580 576
f 95 578 581 579
f 96 582 583 584
f 96 584 585 586
f 96 586 587 582
f 97 588 589 590
f 97 591 592 593
f 97 593 587 588
f 97 590 594 595
f 98 99 591 596
f 98 597 598 99
f 99 598 599 600
f 100 601 602 603
f 605 606 601 100
f 100 603 604 605
f 101 607 524 85
f 101 85 536 608
f 101 609 185 607
f 101 608 610 609
f 102 611 612 613
f 102 614 615 611
f 102 613 616 617
f 103 618 619 620
f 103 621 622 623
f 103 623 624 618
f 104 625 626 538
f 104 537 627 625
f 102 617 628 614
f 105 115 114 107
f 105 615 614 115
f 106 622 108 629
f 106 629 109 630
f 106 631 623 622
f 106 630 107 114
f 107 632 633 634
f 107 630 635 632
f 107 634 636 105
f 106 114 637 638
f 106 638 639 631
f 108 622 621 640
f 108 640 111 629
f 109 641 635 630
f 109 629 111 641
f 110 641 111 640
f 110 642 635 641
f 110 640 621 642
f 112 643 644 645
f 112 646 647 643
f 112 645 113 646
f 113 648 649 646
f 113 645 637 648
f 114 628 648 637
f 114 115 614 628
f 650 634 633 154
f 116 651 652 653
f 116 653 654 655
f 117 128 127 656
f 117 657 118 658
f 117 656 659 657
f 118 660 661 658
f 118 657 652 660
f 119 123 126 662
f 119 662 663 129
f 119 121 664 123
f 120 665 124 666
f 120 147 158 146
f 120 667 668 665
f 120 146 122 667
f 121 667 122 669
f 123 664 670 126
f 124 671 672 666
f 125 124 665 673
f 125 133 674 124
f 132 675 676 677
f 126 670 676 675
f 127 678 679 680
f 127 128 681 682
f 127 680 683 656
f 128 117 684 681
f 129 663 130 131
f 130 135 685 686
f 130 663 687 135
f 130 686 673 131
f 132 677 688 689
f 133 690 691 674
f 133 125 673 686
f 133 686 685 690
f 134 692 675 132
f 134 132 689 693
f 134 693 694 695
f 134 696 697 692
f 135 687 698 293
f 135 293 292 685
f 136 699 700 701
f 136 702 703 699
f 136 701 697 702
f 137 374 704 705
f 137 140 706 142
f 137 138 139 140
f 137 705 707 138
f 138 707 709 708
f 139 710 711 712
f 139 712 713 140
f 140 713 145 714
f 140 714 715 706
f 141 373 142 706
f 716 374 373 141
f 141 706 534 716
f 143 717 300 718
f 143 682 281 717
f 144 719 720 157
f 145 721 722 714
f 146 158 669 122
f 147 672 723 158
f 148 651 724 150
f 148 150 725 726
f 149 148 727 728
f 652 651 148 149
f 149 728 660 652
f 148 726 729 727
f 150 730 731 725
f 150 724 151 730
f 151 732 733 730
f 152 153 734 735
f 152 735 736 737
f 152 737 738 153
f 153 738 739 740
f 153 740 741 742
f 153 742 743 734
f 154 744 741 740
f 154 745 746 744
f 154 740 739 650
f 155 747 748 749
f 155 750 751 752
f 155 749 753 750
f 155 156 754 747
f 156 755 756 754
f 156 155 752 757
f 156 757 758 759
f 156 759 720 755
f 157 760 761 721
f 157 720 759 760
f 159 160 762 763
f 159 763 758 757
f 159 764 765 160
f 159 757 752 764
f 160 765 766 762
f 162 767 768 769
f 162 770 163 771
f 162 769 772 770
f 163 773 774 771
f 163 770 775 773
f 164 776 777 778
f 165 779 164 166
f 165 175 780 779
f 164 778 781 166
f 168 782 167 783
f 167 784 785 783
f 167 761 786 784
f 169 787 788 789
f 169 790 791 792
f 169 789 793 794
f 169 794 795 790
f 170 796 797 798
f 170 798 799 800
f 801 802 803 804
f 171 805 804 803
f 171 806 807 805
f 171 763 762 806
f 172 173 808 792
f 172 809 810 173
f 172 792 791 809
f 173 810 811 812
f 174 813 814 815
f 174 816 817 813
f 175 818 819 820
f 175 820 174 815
f 174 820 821 816
f 176 822 178 823
f 176 180 177 824
f 176 823 825 180
f 177 826 827 824
f 177 828 829 826
f 178 766 765 823
f 178 822 830 766
f 179 751 750 831
f 179 180 825 751
f 179 831 832 180
f 180 832 833 177
f 834 835 809 791
f 836 833 837 838
f 181 839 840 841
f 181 842 843 839
f 181 841 844 842
f 182 845 846 847
f 182 839 843 848
f 182 847 619 849
f 182 849 840 839
f 182 848 850 845
f 183 851 852 853
f 183 613 612 854
f 183 854 855 851
f 184 185 186 856
f 184 857 858 185
f 185 609 187 186
f 186 187 859 860
f 187 609 610 859
f 188 626 625 861
f 188 610 608 626
f 188 861 859 610
f 189 860 859 861
f 190 862 863 864
f 190 864 865 866
f 190 866 867 862
f 191 868 869 603
f 191 603 602 870
f 191 870 871 868
f 192 872 867 866
f 192 873 874 872
f 192 866 865 873
f 98 596 875 597
f 193 876 869 877
f 193 878 879 195
f 193 195 880 876
f 194 599 598 881
f 194 882 883 599
f 194 881 884 882
f 195 879 594 880
f 196 886 887 197
f 196 885 888 886
f 197 887 889 890
f 197 890 198 196
f 890 889 199 198
f 199 891 200 198
f 199 889 892 893
f 199 893 894 891
f 200 895 888 885
f 896 897 201 898
f 201 899 895 200
f 201 200 891 898
f 202 900 551 554
f 202 554 882 884
f 202 884 901 900
f 203 902 903 857
f 204 904 905 906
f 205 907 908 909
f 205 204 910 907
f 206 910 911 912
f 206 208 907 910
f 206 913 914 208
f 206 912 915 913
f 207 916 917 918
f 920 921 916 207
f 207 918 919 920
f 208 922 923 924
f 208 924 908 907
f 209 925 926 927
f 209 928 929 925
f 209 927 930 928
f 210 931 932 933
f 210 934 935 931
f 210 933 936 934
f 211 937 938 939
f 211 939 940 941
f 211 941 934 936
f 212 938 942 943
f 212 216 213 944
f 212 944 939 938
f 213 945 946 944
f 214 947 948 949
f 214 940 946 950
f 214 951 941 940
f 214 949 952 951
f 953 952 954 955
f 215 954 956 957
f 959 955 954 215
f 215 957 958 959
f 216 212 960 961
f 216 961 945 213
f 217 947 214 950
f 217 950 962 218
f 217 218 963 947
f 218 962 964 963
f 219 433 965 427
f 220 966 427 965
f 220 929 967 966
f 220 965 925 929
f 221 968 969 970
f 221 970 971 972
f 221 972 973 968
f 222 974 968 973
f 222 975 976 974
f 222 973 977 975
f 226 978 224 225
f 223 226 225 979
f 223 980 981 226
f 224 978 982 983
f 224 984 979 225
f 223 979 976 975
f 223 975 977 980
f 227 985 986 987
f 227 988 989 985
f 228 992 993 994
f 228 995 996 992
f 228 994 997 995
f 229 244 998 999
f 229 1000 1001 244
f 229 999 1002 1003
f 229 1004 997 1000
f 229 1003 1005 1004
f 230 1006 233 1007
f 231 1009 1006 230
f 230 1007 1008 231
f 1010 1011 1012 1013
f 231 1014 996 995
f 231 995 997 1004
f 231 1008 1015 1014
f 231 1004 1005 1009
f 232 1016 1017 1018
f 232 1002 1019 1016
f 232 1020 1003 1002
f 233 1021 1013 1012
f 233 1022 1023 1007
f 233 1012 1024 1022
f 234 237 1022 1024
f 235 1027 1028 1029
f 235 1029 1030 1031
f 235 246 1032 1033
f 235 1031 245 246
f 235 1033 1034 1027
f 236 1036 1037 1038
f 236 1038 1017 1039
f 237 234 1035 1040
f 237 1041 1023 1022
f 238 1042 1015 1008
f 238 1043 1044 1042
f 238 1008 1007 1043
f 240 1045 1017 1038
f 241 1046 1047 782
f 241 236 1048 1046
f 242 1049 1050 1051
f 242 1052 1053 1049
f 242 1051 1054 1055
f 243 1055 1056 1057
f 1058 242 1055 243
f 243 1057 247 1058
f 244 1001 1058 998
f 1060 1019 1002 999
f 245 1031 1061 1062
f 245 1063 1032 246
f 247 1057 366 1064
f 247 1064 1065 1039
f 248 1066 1067 1068
f 248 1069 338 1066
f 248 1070 32 1069
f 248 1068 1071 1070
f 249 321 262 267
f 1072 1073 1074 1075
f 250 1076 1077 1078
f 250 1078 1079 1080
f 250 1081 1082 1076
f 251 1084 1085 1086
f 252 257 1087 1088
f 252 1089 1090 1091
f 252 1091 1092 257
f 253 254 1087 257
f 253 257 1093 1094
f 1095 1096 1097 1098
f 253 1095 1098 254
f 254 1098 1099 1087
f 251 1086 1100 1083
f 251 1080 1095 253
f 256 1104 1097 1101
f 256 1103 1105 1104
f 257 1092 1106 1107
f 257 1107 1108 1109
f 257 1109 1110 1093
f 258 259 1111 1112
f 258 1112 1113 1114
f 258 1114 1115 259
f 259 1115 1116 1111
f 1117 1114 1113 1118
f 1117 1118 1119 1116
f 1119 1118 1090 1120
f 1119 1120 1107 1106
f 1119 1106 1111 1116
f 1120 1090 1089 1121
f 1120 1121 1108 1107
f 1121 1089 1122 1123
f 1121 1123 1124 1108
f 1124 1123 1073 315
f 1124 315 314 1125
f 1124 1125 1109 1108
f 1125 314 316 1126
f 1125 1126 1110 1109
f 1126 316 1127 1128
f 1126 1128 1129 1110
f 1129 1128 1130 1131
f 1129 1131 1086 1085
f 1129 1085 1093 1110
f 1131 1130 1132 1133
f 1131 1133 1100 1086
f 1133 1132 1134 1077
f 1133 1077 1076 1100
f 1134 1132 1135 767
f 1134 767 162 1136
f 1134 1136 1078 1077
f 1136 162 771 1137
f 1136 1137 1079 1078
f 1137 771 774 1138
f 1137 1138 1139 1079
f 1139 1138 1140 1141
f 1139 1141 1142 1143
f 1139 1143 1080 1079
f 1143 1142 1144 1145
f 1143 1145 1095 1080
f 1145 1144 1104 1105
f 1145 1105 1096 1095
f 1144 1142 1099 1098
f 1144 1098 1097 1104
f 1142 1141 1146 1099
f 1146 1141 1140 1147
f 1146 1147 1148 1088
f 1146 1088 1087 1099
f 1148 1147 1149 1150
f 1148 1150 1151 1152
f 1148 1152 252 1088
f 1152 1151 1074 1122
f 1152 1122 1089 252
f 1151 1150 1153 1154
f 1151 1154 1075 1074
f 1154 1153 1155 1156
f 1154 1156 312 1075
f 1156 1155 1157 1158
f 1156 1158 313 312
f 1158 1157 1159 1160
f 1158 1160 303 313
f 1160 1159 1161 1162
f 1160 1162 304 303
f 1162 1161 1163 1164
f 1162 1164 1165 304
f 1165 1164 1166 289
f 1165 289 286 1167
f 1165 1167 305 304
f 1167 286 285 1168
f 1167 1168 306 305
f 1168 285 263 323
f 1168 323 309 306
f 1166 1169 674 691
f 1166 691 287 289
f 1166 1164 1163 1169
f 1169 671 124 674
f 1169 1163 1170 671
f 1170 723 672 671
f 1170 1163 1161 1171
f 1170 1171 1172 723
f 1172 1173 158 723
f 1172 1171 1174 1175
f 1172 1175 1176 1173
f 1176 1177 1178 1173
f 1176 1175 1179 1180
f 1176 1180 772 1177
f 1180 1179 1181 775
f 1180 775 770 772
f 1181 1179 1182 1183
f 1181 1183 1184 1185
f 1181 1185 773 775
f 1185 1184 1149 1186
f 1185 1186 774 773
f 1186 1149 1147 1140
f 1186 1140 1138 774
f 1184 1183 1155 1153
f 1184 1153 1150 1149
f 1183 1182 1157 1155
f 1182 1179 1175 1174
f 1182 1174 1159 1157
f 1178 1187 798 797
f 1178 797 158 1173
f 1178 1177 1188 1187
f 1188 1189 1190 1187
f 1188 1177 772 769
f 1188 769 768 1189
f 1190 1191 1192 1193
f 1190 1193 798 1187
f 1190 1189 1194 1191
f 1194 1195 1196 1191
f 1194 1189 768 1197
f 1194 1197 1198 1195
f 1198 1199 1200 1195
f 1198 1197 1135 1201
f 1198 1201 1127 1199
f 1201 1135 1132 1130
f 1201 1130 1128 1127
f 1200 308 307 1202
f 1200 1202 1196 1195
f 1200 1199 310 308
f 1202 307 309 320
f 1202 320 319 1196
f 1199 1127 316 310
f 1197 768 767 1135
f 1196 319 1192 1191
f 1193 1192 1203 1204
f 1193 1204 799 798
f 1204 1203 1205 1206
f 1204 1206 1207 799
f 1207 1206 1208 1209
f 1207 1209 1210 1211
f 1207 1211 800 799
f 1211 1210 664 121
f 1211 121 669 800
f 1210 1209 1212 1213
f 1210 1213 670 664
f 1213 1212 1214 1215
f 1213 1215 676 670
f 1215 1214 1216 1217
f 1215 1217 677 676
f 1217 1216 1218 1219
f 1217 1219 688 677
f 1219 1218 1220 1221
f 1219 1221 1222 688
f 1222 1221 1223 1224
f 1222 1224 1225 1226
f 1222 1226 689 688
f 1226 1225 1227 1228
f 1226 1228 693 689
f 1228 1227 1229 1230
f 1228 1230 694 693
f 1230 1229 1231 1232
f 1230 1232 1233 694
f 1233 1232 1234 1235
f 1233 1235 1236 1237
f 1233 1237 695 694
f 1237 1236 326 325
f 1237 325 328 695
f 1236 1235 1238 1239
f 1236 1239 1240 326
f 1240 1239 1241 1242
f 1240 1242 1243 1244
f 1240 1244 324 326
f 1244 1243 1208 1245
f 1244 1245 322 324
f 1245 1208 1206 1205
f 1245 1205 249 322
f 1243 1242 1214 1212
f 1243 1212 1209 1208
f 1242 1241 1216 1214
f 1241 1239 1238 1246
f 1241 1246 1218 1216
f 1246 1238 1247 1248
f 1246 1248 1220 1218
f 1248 1247 1249 1250
f 1248 1250 1251 1220
f 1251 1250 1252 1253
f 1251 1253 1254 1223
f 1251 1223 1221 1220
f 1254 1253 777 776
f 1254 776 1255 1256
f 1254 1256 1224 1223
f 1256 1255 1257 1258
f 1256 1258 1225 1224
f 1258 1257 1259 1260
f 1258 1260 1227 1225
f 1260 1259 1261 1262
f 1260 1262 1229 1227
f 1262 1261 1263 1264
f 1262 1264 1231 1229
f 1264 1263 1062 1265
f 1264 1265 1266 1231
f 1266 1265 1267 1249
f 1266 1249 1247 1234
f 1266 1234 1232 1231
f 1267 1265 1062 1061
f 1267 1061 1268 1252
f 1267 1252 1250 1249
f 1268 1061 1031 1030
f 1268 1030 778 777
f 1268 777 1253 1252
f 1263 1261 298 1269
f 1263 1269 245 1062
f 1269 298 15 1270
f 1269 1270 1063 245
f 1270 15 6 273
f 1270 273 1271 1063
f 1271 273 268 1272
f 1271 1272 1273 1274
f 1271 1274 1032 1063
f 1274 1273 1042 1044
f 1274 1044 1033 1032
f 1273 1272 1275 1276
f 1273 1276 1015 1042
f 1276 1275 1277 1278
f 1276 1278 1014 1015
f 1278 1277 1279 1280
f 1278 1280 996 1014
f 1280 1279 1281 1282
f 1280 1282 992 996
f 1282 1281 1283 1284
f 1282 1284 993 992
f 1284 1283 1285 1286
f 1284 1286 1287 993
f 1287 1286 1288 1053
f 1287 1053 1052 1289
f 1287 1289 994 993
f 1289 1052 1001 1000
f 1289 1000 997 994
f 1288 351 350 1290
f 1288 1290 1049 1053
f 1288 1286 1285 351
f 1290 350 31 1291
f 1290 1291 1050 1049
f 1291 31 32 1070
f 1291 1070 1071 1050
f 1285 1292 348 351
f 1285 1283 1293 1292
f 1293 1294 1295 1292
f 1293 1283 1281 1296
f 1293 1296 1297 1294
f 1297 1298 382 1294
f 1297 1296 1299 277
f 1297 277 276 1298
f 1299 1296 1281 1279
f 1299 1279 1277 272
f 1299 272 271 277
f 1295 381 384 349
f 1295 349 348 1292
f 1295 1294 382 381
f 1277 1275 3 272
f 1275 1272 268 3
f 1261 1259 299 298
f 1259 1257 1300 299
f 1300 1301 1302 718
f 1300 718 300 299
f 1300 1257 1255 1301
f 1302 779 780 1303
f 1302 1303 143 718
f 1302 1301 164 779
f 1303 780 1304 679
f 1303 679 678 143
f 1304 815 814 1305
f 1304 1305 680 679
f 1304 780 175 815
f 1305 814 1306 1307
f 1305 1307 683 680
f 1307 1306 1308 1309
f 1307 1309 1310 683
f 1310 1309 1311 654
f 1310 654 653 659
f 1310 659 656 683
f 1311 1312 1313 1314
f 1311 1314 655 654
f 1311 1309 1308 1312
f 1314 1313 1315 1316
f 1314 1316 1317 655
f 1316 1315 1318 1319
f 1316 1319 1320 1317
f 1319 1318 732 151
f 1319 151 724 1320
f 1318 1321 753 732
f 1318 1315 1322 1321
f 1322 832 831 1321
f 1322 1315 1313 837
f 1322 837 833 832
f 1321 831 750 753
f 1313 1312 838 837
f 1312 1308 1323 838
f 1323 828 836 838
f 1323 1308 1306 1324
f 1323 1324 829 828
f 1324 1306 814 813
f 1324 813 817 829
f 1301 1255 776 164
f 1247 1238 1235 1234
f 1205 1203 318 249
f 1203 1192 319 318
f 1174 1171 1161 1159
f 1123 1122 1074 1073
f 1118 1113 1091 1090
f 1113 1112 1092 1091
f 1112 1111 1106 1092
f 1105 1103 1102 1096
f 1102 1101 1097 1096
f 1100 1076 1082 1083
f 1094 1093 1085 1084
f 1075 312 311 1072
f 1073 1072 311 315
f 1071 1068 1325 1326
f 1071 1326 1051 1050
f 1326 1325 227 1327
f 1326 1327 1054 1051
f 1327 227 987 1328
f 1327 1328 1329 1054
f 1329 1328 1330 1331
f 1329 1331 1332 1056
f 1329 1056 1055 1054
f 1332 1331 342 345
f 1332 345 1333 1334
f 1332 1334 1057 1056
f 1334 1333 364 367
f 1334 367 366 1057
f 1333 345 344 1335
f 1333 1335 360 364
f 1335 344 1336 275
f 1335 275 274 360
f 1331 1330 343 342
f 1330 1328 987 1337
f 1330 1337 333 343
f 1337 987 986 1338
f 1337 1338 334 333
f 1338 986 409 408
f 1338 408 335 334
f 1068 1067 1339 1325
f 1067 1066 1340 1341
f 1067 1341 1342 1339
f 1342 1341 1343 1344
f 1342 1344 1345 991
f 1342 991 990 1339
f 1345 1344 226 981
f 1345 981 1346 989
f 1345 989 988 991
f 1346 981 980 1347
f 1346 1347 1348 1349
f 1346 1349 985 989
f 1349 1348 410 409
f 1349 409 986 985
f 1348 1347 1350 1351
f 1348 1351 411 410
f 1351 1350 972 971
f 1351 971 1352 411
f 1352 971 970 1353
f 1352 1353 1354 402
f 1352 402 401 411
f 1354 1353 1355 391
f 1354 391 390 394
f 1354 394 389 402
f 1355 969 1356 404
f 1355 404 392 391
f 1355 1353 970 969
f 1356 969 968 974
f 1356 974 976 1357
f 1356 1357 405 404
f 1357 976 979 984
f 1357 984 406 405
f 1350 977 973 972
f 1350 1347 980 977
f 1344 1343 978 226
f 1343 1358 982 978
f 1343 1341 1340 1358
f 1358 339 1359 982
f 1358 1340 337 339
f 1359 329 385 1360
f 1359 1360 983 982
f 1359 339 330 329
f 1360 385 388 403
f 1360 403 406 983
f 1340 1066 338 337
f 1065 1048 236 1039
f 1065 1064 1361 1362
f 1065 1362 1363 1048
f 1363 1364 1046 1048
f 1363 1362 1365 1366
f 1363 1366 1367 1364
f 1367 1368 1369 1364
f 1367 1366 1370 1371
f 1367 1371 1372 1368
f 1372 1373 1374 1368
f 1372 1371 911 906
f 1372 906 905 1373
f 1374 1375 722 1376
f 1374 1376 1369 1368
f 1374 1373 1377 1375
f 1377 535 715 1375
f 1377 1373 905 1378
f 1377 1378 82 535
f 1378 905 904 1379
f 1378 1379 525 82
f 1379 904 189 627
f 1379 627 537 525
f 1376 722 721 1380
f 1376 1380 1047 1369
f 1380 721 761 167
f 1375 715 714 722
f 1371 1370 912 911
f 1370 1366 1365 1381
f 1370 1381 915 912
f 1381 1365 1382 1383
f 1381 1383 1384 915
f 1384 1383 357 378
f 1384 378 1385 1386
f 1384 1386 913 915
f 1386 1385 487 1387
f 1386 1387 914 913
f 1387 487 416 415
f 1385 378 33 356
f 1385 356 72 487
f 1383 1382 358 357
f 1382 1365 1362 1361
f 1382 1361 365 358
f 1369 1047 1046 1364
f 1361 1064 366 365
f 1059 998 1058 247
f 1058 1001 1052 242
f 1045 240 1388 1389
f 1045 1389 1390 239
f 1390 1391 1018 239
f 1390 1389 1392 1393
f 1390 1393 1394 1391
f 1394 1395 1396 1391
f 1394 1393 1397 1398
f 1394 1398 1399 1395
f 1399 1400 1401 1395
f 1399 1398 1402 1403
f 1399 1403 1404 1400
f 1404 1405 1406 1400
f 1404 1403 957 1407
f 1404 1407 1408 1405
f 1408 1409 1410 1405
f 1408 1407 1411 1412
f 1408 1412 1413 1409
f 1413 1414 1415 1409
f 1413 1412 1416 1417
f 1413 1417 960 1414
f 1417 1416 963 964
f 1417 964 961 960
f 1416 1412 1411 948
f 1416 948 947 963
f 1415 1418 1419 1420
f 1415 1420 1410 1409
f 1415 1414 943 1418
f 1420 1419 1421 1422
f 1420 1422 1423 1410
f 1423 1422 1424 1425
f 1423 1425 1426 1406
f 1423 1406 1405 1410
f 1426 1425 1427 1428
f 1426 1428 1429 1401
f 1426 1401 1400 1406
f 1429 1428 1430 1020
f 1429 1020 232 1396
f 1429 1396 1395 1401
f 1430 1431 1009 1005
f 1430 1005 1003 1020
f 1430 1428 1427 1431
f 1431 1432 1006 1009
f 1431 1427 1433 1432
f 1433 1434 1021 1432
f 1433 1427 1425 1424
f 1433 1424 1435 1434
f 1435 1436 1437 1434
f 1435 1424 1422 1421
f 1435 1421 1438 1436
f 1438 1439 1440 1436
f 1438 1421 1419 1441
f 1438 1441 1442 1439
f 1442 1443 1444 1439
f 1442 1441 1445 1446
f 1442 1446 1447 1443
f 1447 1446 1448 1449
f 1447 1449 1450 1451
f 1447 1451 1452 1443
f 1452 1451 1453 1454
f 1452 1454 1455 1456
f 1452 1456 1444 1443
f 1456 1455 1457 1458
f 1456 1458 1459 1444
f 1459 1440 1439 1444
f 1459 1458 1460 1461
f 1459 1461 1462 1440
f 1462 1437 1436 1440
f 1462 1461 1011 1010
f 1462 1010 1013 1437
f 1461 1460 1463 1011
f 1463 1460 1464 1025
f 1463 1025 234 1024
f 1463 1024 1012 1011
f 1464 1460 1458 1457
f 1464 1457 1465 1466
f 1464 1466 1026 1025
f 1466 1465 1467 1468
f 1466 1468 1035 1026
f 1468 1467 789 788
f 1468 788 1040 1035
f 1467 1465 1469 1470
f 1467 1470 793 789
f 1470 1469 1471 1472
f 1470 1472 1473 793
f 1473 1472 1474 1475
f 1473 1475 1476 1477
f 1473 1477 794 793
f 1477 1476 1478 1479
f 1477 1479 795 794
f 1479 1478 1480 1481
f 1479 1481 1482 795
f 1482 1481 1483 1484
f 1482 1484 1485 1486
f 1482 1486 790 795
f 1486 1485 835 834
f 1486 834 791 790
f 1485 1484 1487 1488
f 1485 1488 1489 835
f 1489 1488 1490 1491
f 1489 1491 811 810
f 1489 810 809 835
f 1491 1490 1492 1493
f 1491 1493 1494 811
f 1494 1493 1495 827
f 1494 827 826 1496
f 1494 1496 812 811
f 1496 826 829 817
f 1496 817 816 812
f 1495 1497 824 827
f 1495 1493 1492 1498
f 1495 1498 1499 1497
f 1499 1500 1501 1497
f 1499 1498 1502 1503
f 1499 1503 1504 1500
f 1504 1505 1506 1500
f 1504 1503 1507 1508
f 1504 1508 1509 1505
f 1509 1510 1511 1505
f 1509 1508 1512 1513
f 1509 1513 1514 1510
f 1514 1515 1516 1510
f 1514 1513 1517 1518
f 1514 1518 1519 1515
f 1519 1520 1521 1515
f 1519 1518 1522 1523
f 1519 1523 1524 1520
f 1524 1525 1526 1520
f 1524 1523 888 895
f 1524 895 899 1525
f 1526 1527 1528 1529
f 1526 1529 1521 1520
f 1526 1525 1530 1527
f 1530 1531 1532 1527
f 1530 1525 899 1533
f 1530 1533 1534 1531
f 1534 1535 1536 1531
f 1534 1533 1537 1538
f 1534 1538 1539 1535
f 1539 1540 1541 1535
f 1539 1538 1542 1543
f 1539 1543 1544 1540
f 1544 1545 1546 1540
f 1544 1543 1547 1548
f 1544 1548 1549 1545
f 1549 1550 1551 1545
f 1549 1548 1552 1553
f 1549 1553 1554 1550
f 1554 1555 1556 1550
f 1554 1553 1475 1474
f 1554 1474 1557 1555
f 1557 1453 1558 1555
f 1557 1474 1472 1471
f 1557 1471 1454 1453
f 1558 1450 1559 1560
f 1558 1560 1556 1555
f 1558 1453 1451 1450
f 1560 1559 1561 1562
f 1560 1562 1563 1556
f 1563 1562 1564 1565
f 1563 1565 1566 1551
f 1563 1551 1550 1556
f 1566 1565 1567 1568
f 1566 1568 1569 1546
f 1566 1546 1545 1551
f 1569 1568 1570 1571
f 1569 1571 1572 1541
f 1569 1541 1540 1546
f 1572 1571 1573 1574
f 1572 1574 1575 1536
f 1572 1536 1535 1541
f 1575 1574 1576 1577
f 1575 1577 1578 1532
f 1575 1532 1531 1536
f 1578 1577 1579 1580
f 1578 1580 1581 1528
f 1578 1528 1527 1532
f 1581 1580 1582 1583
f 1581 1583 1584 1585
f 1581 1585 1529 1528
f 1585 1584 1586 1587
f 1585 1587 1521 1529
f 1587 1586 1588 1516
f 1587 1516 1515 1521
f 1588 1586 1589 1590
f 1588 1590 1591 1511
f 1588 1511 1510 1516
f 1591 1590 807 1592
f 1591 1592 1593 1506
f 1591 1506 1505 1511
f 1593 1592 830 822
f 1593 822 176 1501
f 1593 1501 1500 1506
f 1592 807 806 830
f 1590 1589 805 807
f 1589 1594 804 805
f 1589 1586 1584 1594
f 1594 1595 801 804
f 1594 1584 1583 1595
f 1595 1596 802 801
f 1595 1583 1582 1596
f 1596 785 784 802
f 1596 1582 1597 785
f 1597 1598 783 785
f 1597 1582 1580 1579
f 1597 1579 1599 1598
f 1599 1600 1601 1598
f 1599 1579 1577 1576
f 1599 1576 1602 1600
f 1602 1603 1604 1600
f 1602 1576 1574 1573
f 1602 1573 1605 1603
f 1605 1606 1607 1603
f 1605 1573 1571 1570
f 1605 1570 1608 1606
f 1608 1609 1610 1606
f 1608 1570 1568 1567
f 1608 1567 1611 1609
f 1611 1612 1613 1609
f 1611 1567 1565 1564
f 1611 1564 1614 1612
f 1614 1615 1616 1612
f 1614 1564 1562 1561
f 1614 1561 1617 1615
f 1617 1561 1559 1618
f 1618 1559 1450 1449
f 1618 1449 1448 937
f 1616 933 932 1619
f 1616 1619 1613 1612
f 1616 1615 936 933
f 1619 932 959 1620
f 1619 1620 1621 1613
f 1621 1620 1622 1623
f 1621 1623 1624 1610
f 1621 1610 1609 1613
f 1624 1623 1625 1626
f 1624 1626 1627 1607
f 1624 1607 1606 1610
f 1627 1626 1628 1629
f 1627 1629 1630 1604
f 1627 1604 1603 1607
f 1630 1629 1631 1632
f 1630 1632 168 1601
f 1630 1601 1600 1604
f 1631 1633 1388 1037
f 1631 1037 1036 1632
f 1631 1629 1628 1633
f 1633 1392 1389 1388
f 1633 1628 1634 1392
f 1634 1397 1393 1392
f 1634 1628 1626 1625
f 1634 1625 1635 1397
f 1635 1402 1398 1397
f 1635 1625 1623 1622
f 1635 1622 958 1402
f 1622 1620 959 958
f 1601 168 783 1598
f 1553 1552 1476 1475
f 1552 1548 1547 1636
f 1552 1636 1478 1476
f 1636 1547 1637 1638
f 1636 1638 1480 1478
f 1638 1637 1639 1640
f 1638 1640 1641 1480
f 1641 1640 1642 1643
f 1641 1643 1644 1483
f 1641 1483 1481 1480
f 1644 1643 1645 1646
f 1644 1646 1647 1487
f 1644 1487 1484 1483
f 1647 1646 1648 1649
f 1647 1649 1492 1490
f 1647 1490 1488 1487
f 1649 1648 1650 1502
f 1649 1502 1498 1492
f 1650 1507 1503 1502
f 1650 1648 1651 1652
f 1650 1652 1653 1507
f 1653 1512 1508 1507
f 1653 1652 1654 1655
f 1653 1655 1656 1512
f 1656 1517 1513 1512
f 1656 1655 893 892
f 1656 892 1657 1517
f 1657 1522 1518 1517
f 1657 892 889 887
f 1657 887 886 1522
f 1655 1654 894 893
f 1654 1652 1651 1658
f 1654 1658 1659 894
f 1659 1658 1660 1661
f 1659 1661 896 898
f 1659 898 891 894
f 1661 1662 897 896
f 1661 1660 1642 1662
f 1662 1639 1663 897
f 1662 1642 1640 1639
f 1663 1542 1538 1537
f 1663 1537 201 897
f 1663 1639 1637 1542
f 1660 1658 1651 1645
f 1660 1645 1643 1642
f 1651 1648 1646 1645
f 1637 1547 1543 1542
f 1537 1533 899 201
f 1523 1522 886 888
f 1501 176 824 1497
f 1471 1469 1455 1454
f 1469 1465 1457 1455
f 1448 942 938 937
f 1448 1446 1445 942
f 1445 1441 1419 1418
f 1445 1418 943 942
f 1437 1013 1021 1434
f 1432 1021 233 1006
f 1414 960 212 943
f 1411 1407 957 956
f 1411 956 949 948
f 1403 1402 958 957
f 1396 232 1018 1391
f 1388 240 1038 1037
f 1044 1043 1034 1033
f 1043 1007 1023 1034
f 1041 237 1664 1665
f 1041 1665 1028 1027
f 1041 1027 1034 1023
f 1665 1664 819 818
f 1665 818 1666 1028
f 1664 237 1040 1667
f 1664 1667 1668 819
f 1668 1667 787 808
f 1668 808 173 821
f 1668 821 820 819
f 1667 1040 788 787
f 1045 239 1018 1017
f 1030 1029 781 778
f 1029 1028 1666 781
f 990 227 1325 1339
f 984 224 983 406
f 967 1669 1670 966
f 967 929 928 1671
f 967 1671 1672 1669
f 1672 1673 1674 1669
f 1672 1671 470 469
f 1672 469 468 1673
f 1674 1675 1676 1677
f 1674 1677 1670 1669
f 1674 1673 1678 1675
f 1678 1679 1680 1675
f 1678 1673 468 472
f 1678 472 471 1679
f 1680 474 1681 1682
f 1680 1682 1676 1675
f 1680 1679 475 474
f 1682 1681 1683 1684
f 1682 1684 435 1676
f 1684 1683 420 1685
f 1684 1685 436 435
f 1685 420 419 1686
f 1685 1686 1687 436
f 1687 1686 1688 1689
f 1687 1689 1690 1691
f 1687 1691 437 436
f 1691 1690 448 447
f 1691 447 452 437
f 1690 1689 1692 1693
f 1690 1693 458 448
f 1693 1692 1694 1695
f 1693 1695 456 458
f 1692 1696 1697 1694
f 1692 1689 1688 1696
f 1697 1698 1699 1700
f 1697 1700 66 1694
f 1697 1696 1701 1698
f 1701 1702 1703 1698
f 1701 1696 1688 1704
f 1701 1704 1705 1702
f 1705 1706 1707 1702
f 1705 1704 419 418
f 1705 418 1708 1706
f 1708 1709 1710 1706
f 1708 418 417 1711
f 1708 1711 1712 1709
f 1712 69 486 1709
f 1712 1711 424 1713
f 1712 1713 483 69
f 1713 424 423 1714
f 1713 1714 1715 483
f 1715 1716 484 483
f 1715 1714 917 916
f 1715 916 921 1716
f 1716 412 1717 484
f 1716 921 413 412
f 1717 412 55 489
f 1717 489 488 1718
f 1714 423 426 917
f 1711 417 422 424
f 1710 1719 1720 1721
f 1710 1721 1707 1706
f 1710 1709 486 1719
f 1721 1720 1722 1723
f 1721 1723 1724 1707
f 1724 1723 1725 1726
f 1724 1726 1727 1703
f 1724 1703 1702 1707
f 1727 1726 1728 478
f 1727 478 477 1699
f 1727 1699 1698 1703
f 1728 1729 1730 1731
f 1728 1731 479 478
f 1728 1726 1725 1729
f 1731 1730 1732 1733
f 1731 1733 480 479
f 1733 1732 1734 1735
f 1733 1735 1736 480
f 1736 1735 1737 1738
f 1736 1738 1739 1740
f 1736 1740 473 480
f 1740 1739 1683 1681
f 1740 1681 474 473
f 1739 1738 425 421
f 1739 421 420 1683
f 1738 1737 426 425
f 1737 918 917 426
f 1737 1735 1734 918
f 1734 1741 919 918
f 1734 1732 1742 1741
f 1742 923 922 1741
f 1742 1732 1730 1743
f 1742 1743 1744 923
f 1744 1745 924 923
f 1744 1743 1746 497
f 1744 497 496 1745
f 1746 1743 1730 1729
f 1746 1729 1725 1747
f 1746 1747 493 497
f 1747 1725 1723 1722
f 1747 1722 494 493
f 1745 1748 908 924
f 1745 496 499 1748
f 1748 1749 909 908
f 1748 499 541 1749
f 1749 1750 1751 909
f 1749 541 540 1750
f 1751 1752 1753 1754
f 1751 1754 205 909
f 1751 1750 1755 1752
f 1755 1756 1757 1752
f 1755 1750 540 1758
f 1755 1758 1759 1756
f 1759 1760 1761 1756
f 1759 1758 1762 1763
f 1759 1763 1764 1760
f 1764 1765 1766 1760
f 1764 1763 1767 1768
f 1764 1768 1769 1765
f 1769 563 562 1765
f 1769 1768 1770 1771
f 1769 1771 1772 563
f 1772 1773 564 563
f 1772 1771 1774 1775
f 1772 1775 1776 1773
f 1776 1777 1778 1773
f 1776 1775 1779 589
f 1776 589 588 1777
f 1779 1775 1774 605
f 1779 605 604 1780
f 1779 1780 590 589
f 1780 604 876 880
f 1780 880 594 590
f 1778 585 580 565
f 1778 565 564 1773
f 1778 1777 586 585
f 1777 588 587 586
f 1774 1771 1770 1781
f 1774 1781 606 605
f 1781 1770 1782 1783
f 1781 1783 1784 606
f 1784 1783 79 523
f 1784 523 1785 1786
f 1784 1786 601 606
f 1786 1785 1787 1788
f 1786 1788 602 601
f 1788 1787 903 1789
f 1788 1789 870 602
f 1789 903 902 1790
f 1789 1790 871 870
f 1790 902 1754 1753
f 1790 1753 1791 871
f 1791 1792 868 871
f 1791 1753 1752 1757
f 1791 1757 1793 1792
f 1793 1794 877 1792
f 1793 1757 1756 1761
f 1793 1761 1795 1794
f 1795 549 548 1794
f 1795 1761 1760 1766
f 1795 1766 550 549
f 1794 548 193 877
f 1792 877 869 868
f 1787 1785 1796 858
f 1787 858 857 903
f 1796 1785 523 522
f 1796 522 524 607
f 1796 607 185 858
f 1783 1782 519 79
f 1782 1770 1768 1767
f 1782 1767 1797 519
f 1797 1767 1763 1762
f 1797 1762 539 543
f 1797 543 520 519
f 1766 1765 562 550
f 1762 1758 540 539
f 1722 1720 491 494
f 1720 1719 492 491
f 1719 486 485 492
f 1704 1688 1686 419
f 1700 1699 477 476
f 1700 476 471 66
f 1679 471 476 475
f 1677 1676 435 434
f 1677 434 428 1670
f 1671 928 930 470
f 1670 428 427 966
f 965 433 926 925
f 964 962 945 961
f 962 950 946 945
f 959 932 931 955
f 956 954 952 949
f 955 931 935 953
f 953 935 951 952
f 951 935 934 941
f 946 940 939 944
f 930 927 1798 1799
f 930 1799 466 470
f 1799 1798 1800 1801
f 1799 1801 464 466
f 1801 1800 461 463
f 1801 463 465 464
f 1800 1798 1802 1803
f 1800 1803 462 461
f 1803 1802 432 431
f 1803 431 440 462
f 1802 926 433 432
f 1802 1798 927 926
f 911 910 204 906
f 901 884 881 1804
f 901 1804 1805 1806
f 901 1806 1807 900
f 1807 1806 546 545
f 1807 545 544 552
f 1807 552 551 900
f 1806 1805 1808 546
f 1808 1805 875 1809
f 1808 1809 879 878
f 1808 878 547 546
f 1809 875 596 595
f 1809 595 594 879
f 1805 1804 597 875
f 1804 881 598 597
f 883 1810 600 599
f 883 882 554 553
f 883 553 555 1810
f 1810 574 573 600
f 1810 555 558 574
f 878 193 548 547
f 876 604 603 869
f 874 639 1811 872
f 874 873 1812 1813
f 874 1813 631 639
f 1813 1812 1814 624
f 1813 624 623 631
f 1814 1812 1815 1816
f 1814 1816 1817 1818
f 1814 1818 618 624
f 1818 1817 840 849
f 1818 849 619 618
f 1817 1816 1819 1820
f 1817 1820 841 840
f 1820 1819 851 855
f 1820 855 844 841
f 1819 1816 1815 1821
f 1819 1821 852 851
f 1821 1815 865 864
f 1821 864 863 852
f 1815 1812 873 865
f 1811 644 643 1822
f 1811 1822 867 872
f 1811 639 638 644
f 1822 643 647 1823
f 1822 1823 862 867
f 1823 647 1824 1825
f 1823 1825 863 862
f 1825 1824 616 853
f 1825 853 852 863
f 1824 647 646 649
f 1824 649 617 616
f 189 861 625 627
f 855 854 1826 844
f 1826 854 612 1827
f 1826 1827 736 1828
f 1826 1828 842 844
f 1828 736 735 1829
f 1828 1829 843 842
f 1829 735 734 1830
f 1829 1830 848 843
f 1830 734 743 1831
f 1830 1831 850 848
f 1831 743 1832 748
f 1831 748 747 850
f 1832 743 742 731
f 1832 731 730 733
f 1832 733 749 748
f 1827 612 611 1833
f 1827 1833 737 736
f 1833 611 615 1834
f 1833 1834 738 737
f 1834 615 105 636
f 1834 636 739 738
f 183 853 616 613
f 850 747 754 845
f 847 1835 620 619
f 847 846 1836 1835
f 1836 746 745 1835
f 1836 846 756 1837
f 1836 1837 729 746
f 1837 756 755 1838
f 1837 1838 727 729
f 1838 755 720 719
f 1838 719 728 727
f 1835 745 1839 620
f 846 845 754 756
f 836 828 177 833
f 830 806 762 766
f 825 823 765 764
f 825 764 752 751
f 821 173 812 816
f 808 787 169 792
f 171 803 786 1840
f 171 1840 758 763
f 1840 786 761 760
f 1840 760 759 758
f 803 802 784 786
f 241 782 168 1632
f 1036 236 241 1632
f 175 165 166 781
f 1666 818 175 781
f 158 797 796 161
f 800 669 158 161
f 753 749 733 732
f 746 729 726 744
f 745 154 633 1839
f 744 726 725 741
f 742 741 725 731
f 739 636 634 650
f 728 719 144 1841
f 728 1841 661 660
f 1841 144 145 713
f 1841 713 712 661
f 716 534 530 1842
f 716 1842 1843 1844
f 716 1844 704 374
f 1844 1843 371 370
f 1844 370 372 704
f 1843 1842 1845 1846
f 1843 1846 1847 371
f 1847 1846 517 516
f 1847 516 515 1848
f 1847 1848 352 371
f 1848 515 1849 503
f 1848 503 353 352
f 1849 515 514 1850
f 1849 1850 1851 1852
f 1849 1852 504 503
f 1852 1851 1853 1854
f 1852 1854 1855 504
f 1855 505 74 504
f 1855 1854 1856 1857
f 1855 1857 502 505
f 1857 1856 506 511
f 1857 511 500 502
f 1856 1854 1853 1858
f 1856 1858 507 506
f 1858 1853 1859 1860
f 1858 1860 1861 507
f 1861 1862 508 507
f 1861 1860 1863 1864
f 1861 1864 1865 1862
f 1865 1866 1867 1862
f 1865 1864 1868 1869
f 1865 1869 1870 1866
f 1870 528 527 1866
f 1870 1869 1871 1872
f 1870 1872 1873 528
f 1873 1845 529 528
f 1873 1872 512 517
f 1873 517 1846 1845
f 1872 1871 513 512
f 1871 1869 1868 1874
f 1871 1874 1875 513
f 1875 1874 1876 1877
f 1875 1877 1851 1850
f 1875 1850 514 513
f 1877 1876 1878 1859
f 1877 1859 1853 1851
f 1874 1868 1879 1876
f 1868 1864 1863 1879
f 1867 526 533 518
f 1867 518 508 1862
f 1867 1866 527 526
f 1860 1859 1878 1863
f 1845 1842 530 529
f 715 535 534 706
f 712 711 658 661
f 711 684 117 658
f 711 710 1880 684
f 1880 282 681 684
f 1880 710 369 280
f 1880 280 6 282
f 709 707 1881 1882
f 709 1882 368 369
f 1882 1881 363 362
f 1882 362 36 368
f 1881 1883 35 363
f 1881 707 705 1883
f 703 702 1884 301
f 703 301 18 296
f 703 296 297 699
f 1884 702 697 696
f 1884 696 328 327
f 1884 327 302 301
f 701 1885 692 697
f 701 700 1886 1885
f 1886 662 126 1885
f 1886 700 698 687
f 1886 687 663 662
f 1885 126 675 692
f 700 699 297 698
f 698 297 290 293
f 696 134 695 328
f 691 690 288 287
f 690 685 292 288
f 131 673 665 668
f 681 282 281 682
f 678 127 682 143
f 666 672 147 120
f 659 653 652 657
f 649 648 628 617
f 645 644 638 637
f 635 642 1887 632
f 633 632 1887 1839
f 626 608 536 538
f 1887 642 621 103
f 1887 103 620 1839
f 600 573 575 99
f 596 591 97 595
f 99 575 592 591
f 593 1888 582 587
f 593 592 1889 1888
f 1889 571 1890 1888
f 1889 592 575 572
f 1889 572 569 571
f 1890 1891 577 583
f 1890 583 582 1888
f 1890 571 568 1891
f 1891 1892 578 577
f 1891 568 567 1892
f 1892 567 557 559
f 1892 559 581 578
f 585 584 576 580
f 584 583 577 576
f 581 559 556 560
f 581 560 561 579
f 580 579 561 565
f 574 558 566 570
f 567 566 558 557
f 562 92 91 550
f 543 531 521 520
f 542 501 510 1893
f 542 1893 533 532
f 1893 510 76 509
f 1893 509 518 533
f 537 536 83 525
f 81 524 522 521
f 511 510 501 500
f 505 502 495 490
f 495 494 491 490
f 489 55 416 70
f 1695 1894 457 456
f 1894 467 1895 457
f 1894 1695 1694 66
f 1894 472 468 467
f 1895 467 65 1896
f 1895 1896 446 1897
f 1895 1897 453 457
f 1897 446 445 1898
f 1897 1898 454 453
f 1898 1899 450 454
f 1898 445 444 1899
f 1899 1900 451 450
f 1899 444 1901 1900
f 1901 439 438 1900
f 1901 444 443 1902
f 1901 1902 440 439
f 1902 443 442 459
f 1902 459 462 440
f 1900 438 452 451
f 1896 65 465 1903
f 1896 1903 441 446
f 1903 465 463 460
f 1903 460 442 441
f 458 455 449 448
f 455 454 450 449
f 452 438 430 437
f 434 429 58 428
f 408 54 407 335
f 407 398 399 400
f 407 400 336 335
f 394 387 43 389
f 383 382 1298 380
f 383 380 346 341
f 377 372 355 354
f 361 274 270 269
f 361 269 36 362
f 356 355 38 74
f 72 356 74 71
f 340 30 1069 32
f 384 340 32 349
f 1069 30 332 338
f 30 343 333 332
f 331 330 28 336
f 323 317 320 309
f 321 249 318 23
f 313 303 19 21
f 717 281 15 300
f 294 291 265 264
f 294 264 2 261
f 285 260 1 263
f 279 7 265 291
f 279 291 278 5
f 270 276 277 271
f 10 290 12 278
f 38 352 353 74
f 137 142 373 374
f 66 471 472 1894
f 74 505 490 491
f 129 131 668 667
f 161 796 170 800
f 227 990 991 988
f 234 1025 1026 1035
f 1114 1117 1116 1115
f 104 538 536 537
f 196 198 200 885
f 998 1059 1060 999
f 256 1101 1102 1103
f 667 121 119 129
f 721 145 144 157
f 1047 1380 167 782
f 1081 250 1080 251
f 1878 1876 1879 1863
f 1336 344 29 347
f 375 39 377
f 295 294 261
f 295 261 14
f 295 14 13
f 295 13 11
f 651 116 1905 1904
f 655 1317 1905 116
f 1904 1905 1317 1320
f 724 651 1904 1320
f 708 709 369 710
f 415 414 413 921
f 920 919 1741 922
f 920 922 208 914
f 1387 920 914
f 1387 415 921 920
f 936 1618 937 211
f 936 1615 1617 1618
f 253 255 1084 251
f 41 380 1298 276
f 379 41 1336
f 41 276 275 1336
f 1883 705 704 377
f 704 372 377
f 377 354 35 1883
f 354 359 35
f 484 1717 1907 68
f 1906 1907 1717 1718
f 485 482 1906 1718
f 1718 488 72 485
f 72 71 492 485
f 482 481 1906
f 481 68 1907 1906
f 203 857 184 856
f 186 860 203 856
f 860 189 904 203
f 904 204 205 203
f 205 1754 902 203
f 1019 1060 1039 1017
f 1060 1059 247 1039
f 138 708 710 139
f 251 1083 1082 1081
f 253 1094 1084 255
f 1908 1912 1913 1914
f 1909 1915 1916 1917
f 1910 1918 1919 1920
f 1911 1921 1922 1923
f 1922 1921 1917 1916
f 1922 1916 1913 1919
f 1922 1919 1918 1923
f 1919 1913 1912 1920
f 1916 1915 1914 1913
f 1924 1925 1926 1927
f 1924 1927 1928 1929
f 1924 1929 1930 1925
f 1930 1929 1931 1932
f 1931 1929 1928 1933
f 1933 1928 1934 1935
f 1934 1928 1927 1936
f 1936 1927 1926 1937
